<?xml version="1.0" standalone="no"?>
<!DOCTYPE svg PUBLIC "-//W3C//DTD SVG 20010904//EN"
 "http://www.w3.org/TR/2001/REC-SVG-20010904/DTD/svg10.dtd">
<svg version="1.0" xmlns="http://www.w3.org/2000/svg"
 width="225.000000pt" height="225.000000pt" viewBox="0 0 225.000000 225.000000"
 preserveAspectRatio="xMidYMid meet">

<g transform="translate(0.000000,225.000000) scale(0.100000,-0.100000)"
fill="#000000" stroke="none">
<path d="M520 1828 c-31 -21 -40 -42 -113 -248 -85 -242 -88 -266 -43 -311 16
-16 110 -54 280 -114 l256 -90 0 -117 0 -117 -399 -3 c-386 -3 -401 -4 -427
-24 -71 -52 -91 -124 -55 -196 43 -86 23 -83 479 -86 l402 -3 0 -35 c0 -60 58
-99 115 -78 40 16 45 51 45 332 l0 269 292 -103 c160 -57 306 -104 322 -104
17 0 46 9 64 20 l33 20 98 -35 c54 -19 114 -35 134 -35 56 0 91 37 121 128 35
104 34 136 -5 175 -26 25 -29 32 -17 41 67 50 148 122 148 132 0 6 -6 16 -12
21 -22 18 -1632 583 -1659 583 -14 0 -41 -10 -59 -22z m543 -324 c72 -37 107
-94 107 -176 0 -62 -28 -118 -77 -156 l-33 -25 0 49 c1 27 7 60 15 74 8 14 14
42 15 64 0 53 -52 106 -105 106 -72 0 -114 -41 -115 -110 0 -25 7 -55 16 -68
10 -14 14 -38 12 -68 l-3 -45 -42 36 c-79 68 -90 179 -26 264 49 64 165 91
236 55z"/>
</g>
</svg>
