<?xml version="1.0" standalone="no"?>
<!DOCTYPE svg PUBLIC "-//W3C//DTD SVG 20010904//EN"
 "http://www.w3.org/TR/2001/REC-SVG-20010904/DTD/svg10.dtd">
<svg version="1.0" xmlns="http://www.w3.org/2000/svg"
 width="550.000000pt" height="227.000000pt" viewBox="0 0 550.000000 227.000000"
 preserveAspectRatio="xMidYMid meet">

<g transform="translate(0.000000,227.000000) scale(0.100000,-0.100000)"
fill="#000000" stroke="none">
<path d="M1022 1516 c-358 -84 -655 -156 -659 -159 -3 -4 11 -7 33 -7 47 0
662 -26 974 -41 124 -6 259 -11 300 -11 72 -1 73 -2 30 -10 -25 -5 -76 -7
-115 -5 -43 3 -60 2 -45 -3 23 -8 183 -15 825 -40 143 -6 370 -15 505 -20 586
-23 642 -23 650 -9 7 11 77 10 427 -4 230 -10 466 -17 526 -17 l107 0 0 -275
0 -275 139 93 c77 50 241 158 365 239 l225 147 3 222 c3 214 2 222 -17 228
-11 4 -650 24 -1420 45 -770 21 -1530 42 -1690 47 -521 16 -416 29 -1163 -145z
m851 -233 c-7 -2 -19 -2 -25 0 -7 3 -2 5 12 5 14 0 19 -2 13 -5z m74 1 c-3 -3
-12 -4 -19 -1 -8 3 -5 6 6 6 11 1 17 -2 13 -5z m320 -10 c-3 -3 -12 -4 -19 -1
-8 3 -5 6 6 6 11 1 17 -2 13 -5z m176 -11 c-7 -2 -21 -2 -30 0 -10 3 -4 5 12
5 17 0 24 -2 18 -5z m240 -10 c-7 -2 -21 -2 -30 0 -10 3 -4 5 12 5 17 0 24 -2
18 -5z m240 -10 c-7 -2 -21 -2 -30 0 -10 3 -4 5 12 5 17 0 24 -2 18 -5z m285
-10 c-21 -2 -55 -2 -75 0 -21 2 -4 4 37 4 41 0 58 -2 38 -4z m276 -12 c5 -8
-194 -4 -219 4 -5 2 40 4 102 4 61 1 114 -3 117 -8z m1146 -167 c0 -8 -4 -12
-10 -9 -5 3 -10 10 -10 16 0 5 5 9 10 9 6 0 10 -7 10 -16z"/>
<path d="M1173 1293 c20 -2 54 -2 75 0 20 2 3 4 -38 4 -41 0 -58 -2 -37 -4z"/>
<path d="M1335 1290 c45 -10 171 -13 163 -5 -3 3 -50 8 -104 9 -71 3 -88 2
-59 -4z"/>
<path d="M276 1241 c-11 -16 7 -381 18 -390 6 -5 108 -14 226 -20 351 -19 341
-19 377 8 l32 24 628 -31 c345 -18 952 -48 1348 -68 662 -33 722 -37 745 -55
58 -45 76 -48 403 -64 176 -8 323 -12 328 -9 15 9 11 434 -3 439 -13 5 -173
11 -2438 105 -668 28 -1305 55 -1415 60 -247 12 -243 12 -249 1z m164 -91 c5
0 10 6 13 13 8 24 17 0 11 -31 -7 -32 -24 -45 -24 -17 0 20 -10 19 -26 -2 -12
-17 -13 -16 -14 5 0 13 5 33 12 45 11 19 13 20 16 5 2 -10 7 -18 12 -18z m55
-12 c-8 -37 -12 -44 -21 -35 -9 9 6 67 18 67 6 0 7 -13 3 -32z m35 21 c0 -8 5
-8 15 1 9 8 15 9 15 2 0 -6 -5 -14 -10 -17 -7 -4 -7 -12 0 -25 15 -29 12 -35
-9 -16 -15 13 -20 14 -24 4 -8 -25 -17 -1 -11 30 6 30 24 45 24 21z m70 -17
c1 -16 1 -16 11 1 5 9 18 17 28 17 14 0 17 -6 13 -30 -3 -23 0 -30 12 -30 19
0 21 11 5 27 -16 16 -2 33 24 32 20 0 21 -1 3 -8 -14 -5 -16 -10 -8 -15 7 -4
12 -16 12 -27 0 -16 -7 -19 -40 -17 -37 1 -39 3 -34 27 l5 26 -18 -27 c-10
-16 -21 -28 -24 -28 -8 0 -17 68 -11 75 9 8 22 -6 22 -23z m140 1 c0 -15 2
-14 14 3 13 16 18 17 35 7 11 -7 27 -10 36 -7 10 4 15 0 15 -10 0 -9 5 -16 10
-16 6 0 10 8 10 17 0 9 3 14 6 10 9 -9 -6 -67 -18 -67 -5 0 -12 10 -16 22 -5
21 -5 21 -14 -2 -7 -18 -11 -21 -17 -11 -6 9 -11 10 -15 2 -12 -18 -36 -12
-46 12 -7 17 -9 18 -9 5 -1 -10 -6 -18 -12 -18 -7 0 -9 9 -5 23 3 12 6 28 6
35 0 6 5 12 10 12 6 0 10 -8 10 -17z m3250 -265 c0 -5 -4 -8 -10 -8 -5 0 -10
10 -10 23 0 18 2 19 10 7 5 -8 10 -18 10 -22z m137 12 c-1 -13 -8 -20 -22 -20
-16 0 -17 2 -5 10 11 7 -2 10 -42 10 -32 0 -58 5 -58 10 0 6 28 10 64 10 59 0
65 -2 63 -20z"/>
<path d="M766 1124 c-9 -23 -7 -36 3 -30 12 8 21 46 11 46 -4 0 -11 -7 -14
-16z"/>
<path d="M3575 1199 c-44 -10 77 -9 140 0 45 7 42 8 -30 7 -44 0 -93 -3 -110
-7z"/>
<path d="M3815 1190 c17 -4 55 -8 85 -7 l55 0 -50 7 c-27 5 -66 8 -85 8 l-35
0 30 -8z"/>
<path d="M3738 1183 c7 -3 16 -2 19 1 4 3 -2 6 -13 5 -11 0 -14 -3 -6 -6z"/>
<path d="M4040 1180 l-45 -7 40 -1 c22 0 49 3 60 8 23 10 9 10 -55 0z"/>
<path d="M4168 1183 c7 -3 16 -2 19 1 4 3 -2 6 -13 5 -11 0 -14 -3 -6 -6z"/>
<path d="M900 815 l-34 -25 50 0 c27 0 171 -7 319 -15 290 -16 485 -26 1515
-80 366 -19 719 -37 785 -40 66 -3 131 -8 144 -11 21 -5 23 -3 12 10 -8 9 -19
16 -26 16 -7 0 -15 6 -18 14 -8 20 -32 21 -842 61 -390 19 -750 37 -800 40
-49 3 -283 14 -520 25 -236 11 -457 22 -490 25 -54 5 -65 2 -95 -20z"/>
</g>
</svg>
