<?xml version="1.0" standalone="no"?>
<!DOCTYPE svg PUBLIC "-//W3C//DTD SVG 20010904//EN"
 "http://www.w3.org/TR/2001/REC-SVG-20010904/DTD/svg10.dtd">
<svg version="1.0" xmlns="http://www.w3.org/2000/svg"
 width="100.000000pt" height="60.000000pt" viewBox="0 0 100.000000 60.000000"
 preserveAspectRatio="xMidYMid meet">

<g transform="translate(0.000000,60.000000) scale(0.100000,-0.100000)"
fill="#000000" stroke="none">
<path d="M190 340 c0 -5 11 -10 25 -10 23 0 25 -4 25 -41 0 -33 3 -40 18 -37
13 2 17 13 16 41 0 34 2 37 28 37 15 0 28 5 28 10 0 6 -30 10 -70 10 -40 0
-70 -4 -70 -10z"/>
<path d="M363 335 c-45 -19 -43 -48 3 -70 31 -14 43 -15 74 -6 60 18 64 61 8
80 -39 14 -46 13 -85 -4z m87 -20 c17 -21 -4 -45 -40 -45 -15 0 -33 7 -40 15
-17 21 4 45 40 45 15 0 33 -7 40 -15z"/>
<path d="M528 343 c-22 -6 -24 -39 -2 -47 9 -3 29 -6 45 -6 16 0 29 -4 29 -10
0 -5 -20 -10 -45 -10 -27 0 -45 -5 -45 -11 0 -15 97 -6 113 10 16 17 -17 41
-55 41 -15 0 -28 5 -28 10 0 6 18 10 40 10 22 0 40 5 40 10 0 10 -59 12 -92 3z"/>
<path d="M683 335 c-46 -20 -44 -51 3 -71 41 -17 84 -11 108 15 22 24 12 47
-26 60 -39 14 -46 13 -85 -4z m87 -20 c17 -21 -4 -45 -40 -45 -36 0 -57 24
-40 45 7 8 25 15 40 15 15 0 33 -7 40 -15z"/>
</g>
</svg>
