<svg id="svg" version="1.1" xmlns="http://www.w3.org/2000/svg" xmlns:xlink="http://www.w3.org/1999/xlink" width="80"
     height="80" viewBox="0, 0, 400,400">
    <g id="svgg">
        <path id="path0"
              d="M43.284 172.852 C 41.295 173.425,40.964 174.760,42.203 177.205 C 43.580 179.923,43.589 179.863,39.998 192.516 C 38.238 198.722,36.593 204.520,36.344 205.400 C 35.684 207.733,35.129 209.662,34.791 210.800 C 34.627 211.350,34.297 212.520,34.059 213.400 C 31.730 221.985,31.138 223.178,28.216 225.189 C 26.059 226.673,25.527 228.250,26.829 229.304 C 27.667 229.982,29.088 230.018,51.359 229.912 L 75.000 229.800 76.251 228.908 C 78.061 227.617,78.889 225.633,81.273 216.868 C 82.448 212.549,81.430 210.800,77.742 210.800 C 75.368 210.800,73.879 211.847,69.279 216.751 C 64.159 222.209,63.766 222.400,57.654 222.400 L 53.600 222.400 53.600 221.365 C 53.600 220.796,53.983 218.951,54.452 217.265 C 54.920 215.579,55.640 212.985,56.052 211.500 C 56.463 210.015,57.170 207.532,57.622 205.981 L 58.445 203.163 60.922 203.281 L 63.400 203.400 64.673 205.797 C 68.021 212.102,71.775 211.557,73.971 204.446 C 77.072 194.400,77.323 193.247,76.629 192.188 C 75.107 189.866,72.352 190.398,68.275 193.800 C 65.263 196.315,65.088 196.400,62.937 196.400 L 60.712 196.400 60.891 195.100 C 61.071 193.788,62.569 188.072,64.037 183.100 L 64.834 180.400 70.555 180.400 C 77.360 180.400,77.076 180.223,78.567 185.400 C 79.794 189.662,80.560 190.827,82.581 191.504 C 85.570 192.504,87.885 191.224,88.920 188.000 C 92.515 176.802,92.298 174.098,87.699 172.821 C 85.780 172.288,45.142 172.316,43.284 172.852 M161.543 175.186 C 158.389 175.756,156.757 176.814,152.200 181.245 L 147.800 185.524 143.741 185.662 C 137.359 185.879,136.355 187.519,140.146 191.530 C 144.302 195.927,144.378 195.136,137.929 214.600 C 135.322 222.471,136.740 227.054,142.582 229.634 C 149.547 232.711,163.003 229.453,167.520 223.596 C 169.772 220.677,169.357 220.200,164.572 220.200 C 159.811 220.200,159.195 219.848,159.208 217.129 C 159.217 215.388,159.430 214.592,163.204 202.200 C 164.343 198.460,165.447 194.815,165.656 194.100 L 166.038 192.800 169.032 192.800 C 173.701 192.800,175.874 191.507,176.279 188.486 C 176.580 186.242,175.554 185.600,171.667 185.600 L 168.712 185.600 168.906 184.300 C 169.013 183.585,169.317 182.010,169.582 180.800 C 170.600 176.150,167.642 174.085,161.543 175.186 M108.800 183.861 C 97.629 184.918,90.779 190.661,90.809 198.946 C 90.829 204.562,93.762 207.521,104.578 212.840 C 113.385 217.171,113.824 224.000,105.296 224.000 C 102.131 224.000,101.709 223.587,101.519 220.308 C 100.911 209.804,83.557 208.368,83.609 218.826 C 83.644 226.011,92.917 230.373,108.200 230.392 C 122.588 230.411,131.745 225.511,133.003 217.120 C 133.937 210.890,131.204 207.962,118.800 201.906 C 109.173 197.205,106.666 192.886,112.218 190.567 C 115.606 189.151,117.653 189.936,117.745 192.685 C 118.028 201.180,134.117 203.271,136.329 195.100 C 138.291 187.854,124.799 182.346,108.800 183.861 M343.200 183.961 C 332.651 185.197,326.363 190.626,326.247 198.600 C 326.167 204.101,328.646 207.032,336.948 211.251 C 339.617 212.608,342.654 214.272,343.698 214.951 C 348.877 218.317,347.078 224.000,340.835 224.000 C 337.576 224.000,337.392 223.829,337.060 220.490 C 335.989 209.728,319.059 208.092,319.069 218.751 C 319.075 226.039,328.296 230.400,343.696 230.400 C 358.285 230.400,367.470 225.244,368.636 216.400 C 369.327 211.159,366.286 207.933,355.772 202.754 C 345.301 197.596,343.226 195.207,346.174 191.704 C 348.420 189.034,353.200 189.402,353.200 192.245 C 353.200 199.855,366.359 203.427,370.979 197.071 C 376.593 189.347,360.810 181.899,343.200 183.961 M298.200 184.256 C 289.361 186.062,283.115 189.662,280.000 194.746 C 278.699 196.870,278.560 196.824,278.248 194.170 C 277.101 184.413,265.364 180.966,258.637 188.412 C 256.869 190.369,256.662 190.374,255.604 188.493 C 253.318 184.425,246.993 183.357,238.736 185.645 C 232.440 187.389,230.980 188.974,233.301 191.543 C 235.243 193.693,235.390 194.418,234.473 197.312 C 234.039 198.680,233.113 201.690,232.416 204.000 C 231.719 206.310,230.992 208.650,230.800 209.200 C 230.608 209.750,229.885 212.090,229.192 214.400 C 226.442 223.575,226.043 224.367,223.327 226.045 C 221.587 227.120,221.235 228.337,222.394 229.275 C 223.538 230.202,249.406 230.390,251.196 229.484 C 252.586 228.781,252.653 227.753,251.378 226.696 C 247.560 223.532,247.535 224.246,251.963 209.897 C 256.906 193.877,257.679 193.047,261.569 199.594 C 264.766 204.975,269.847 206.348,274.221 203.011 C 275.997 201.657,276.143 201.718,275.869 203.700 C 275.740 204.635,275.439 206.812,275.201 208.538 C 273.469 221.088,281.209 229.501,295.205 230.285 C 306.013 230.890,316.774 224.231,316.796 216.924 C 316.802 215.095,316.549 215.073,311.949 216.497 C 301.894 219.610,294.400 217.357,294.400 211.220 L 294.400 209.600 300.974 209.600 C 316.300 209.600,323.362 205.503,323.384 196.600 C 323.406 187.705,311.024 181.637,298.200 184.256 M199.600 184.633 C 182.957 186.531,171.040 198.440,171.011 213.200 C 170.988 224.959,178.232 230.533,193.600 230.580 C 212.134 230.637,226.396 218.087,226.400 201.720 C 226.402 190.071,215.100 182.866,199.600 184.633 M303.238 191.671 C 305.003 194.969,302.046 202.729,298.451 204.235 C 295.043 205.663,294.433 204.484,296.037 199.566 C 298.236 192.819,301.776 188.939,303.238 191.671 M205.100 192.698 C 207.361 195.658,200.214 219.393,195.992 222.946 C 192.869 225.573,190.581 222.872,191.584 217.741 C 195.035 200.086,201.538 188.036,205.100 192.698 "
              stroke="none" fill="#064ead" fill-rule="evenodd"></path>
        <path id="path2"
              d="M55.500 171.900 C 61.055 171.962,70.145 171.962,75.700 171.900 C 81.255 171.837,76.710 171.786,65.600 171.786 C 54.490 171.786,49.945 171.837,55.500 171.900 M41.854 172.829 C 41.274 173.285,40.805 173.870,40.812 174.129 C 40.819 174.388,41.017 174.269,41.252 173.864 C 41.488 173.459,42.247 172.881,42.940 172.579 C 43.633 172.278,43.909 172.024,43.554 172.016 C 43.199 172.007,42.434 172.373,41.854 172.829 M90.394 173.803 C 91.987 175.721,92.121 175.845,91.686 174.996 C 91.459 174.553,90.852 173.834,90.337 173.398 C 89.433 172.634,89.435 172.648,90.394 173.803 M160.200 174.800 C 159.181 175.238,160.232 175.238,161.600 174.800 C 162.404 174.543,162.443 174.477,161.800 174.468 C 161.360 174.462,160.640 174.611,160.200 174.800 M157.500 175.829 C 156.005 176.640,156.096 176.978,157.600 176.200 C 158.260 175.859,158.800 175.494,158.800 175.390 C 158.800 175.132,158.757 175.147,157.500 175.829 M169.455 176.200 C 170.380 177.779,170.400 177.803,170.400 177.311 C 170.400 177.079,170.029 176.464,169.576 175.944 L 168.753 175.000 169.455 176.200 M41.160 176.600 C 41.834 177.905,42.388 178.628,42.385 178.200 C 42.383 177.980,42.014 177.350,41.564 176.800 C 41.021 176.136,40.885 176.069,41.160 176.600 M151.881 180.715 L 147.998 184.600 144.499 184.831 L 141.000 185.062 144.356 185.131 L 147.712 185.200 151.753 181.300 C 153.975 179.155,155.870 177.355,155.963 177.300 C 156.057 177.245,156.050 177.117,155.949 177.015 C 155.847 176.914,154.017 178.579,151.881 180.715 M42.501 180.200 C 42.505 181.080,42.587 181.393,42.683 180.895 C 42.779 180.398,42.775 179.678,42.675 179.295 C 42.575 178.913,42.496 179.320,42.501 180.200 M169.829 181.429 C 169.681 182.015,169.638 182.572,169.732 182.666 C 169.827 182.760,170.024 182.358,170.171 181.771 C 170.319 181.185,170.362 180.628,170.268 180.534 C 170.173 180.440,169.976 180.842,169.829 181.429 M90.649 183.015 C 90.512 183.373,90.415 183.966,90.434 184.333 C 90.453 184.700,90.627 184.469,90.821 183.820 C 91.198 182.558,91.065 181.933,90.649 183.015 M64.249 183.415 C 64.112 183.773,64.015 184.366,64.034 184.733 C 64.053 185.100,64.227 184.869,64.421 184.220 C 64.798 182.958,64.665 182.333,64.249 183.415 M105.800 183.600 C 104.137 184.023,105.774 184.042,107.800 183.623 C 109.145 183.345,109.209 183.292,108.200 183.293 C 107.540 183.294,106.460 183.432,105.800 183.600 M118.900 183.476 C 119.285 183.576,119.915 183.576,120.300 183.476 C 120.685 183.375,120.370 183.293,119.600 183.293 C 118.830 183.293,118.515 183.375,118.900 183.476 M169.030 183.867 C 168.639 184.884,169.152 185.106,172.271 185.271 C 174.359 185.381,175.395 185.634,176.071 186.197 L 177.000 186.970 176.116 186.012 C 175.390 185.225,174.709 185.013,172.316 184.827 C 169.829 184.633,169.417 184.497,169.518 183.900 C 169.667 183.012,169.366 182.991,169.030 183.867 M298.800 183.609 C 297.810 183.769,298.980 183.807,301.400 183.695 C 303.820 183.582,305.875 183.425,305.967 183.345 C 306.249 183.099,300.706 183.303,298.800 183.609 M341.200 183.600 C 339.850 183.884,339.843 183.895,341.000 183.900 C 341.660 183.903,342.740 183.768,343.400 183.600 C 345.060 183.178,343.207 183.178,341.200 183.600 M355.200 183.620 C 357.614 184.050,359.506 184.013,357.400 183.577 C 356.520 183.395,355.260 183.258,354.600 183.273 C 353.700 183.293,353.850 183.380,355.200 183.620 M121.700 183.876 C 122.085 183.976,122.715 183.976,123.100 183.876 C 123.485 183.775,123.170 183.693,122.400 183.693 C 121.630 183.693,121.315 183.775,121.700 183.876 M307.305 183.887 C 307.914 183.979,308.814 183.977,309.305 183.882 C 309.797 183.787,309.300 183.711,308.200 183.714 C 307.100 183.717,306.697 183.795,307.305 183.887 M77.656 184.400 C 77.656 184.730,77.811 185.360,78.000 185.800 C 78.217 186.304,78.344 186.378,78.344 186.000 C 78.344 185.670,78.189 185.040,78.000 184.600 C 77.783 184.096,77.656 184.022,77.656 184.400 M102.200 184.400 C 101.696 184.617,101.622 184.744,102.000 184.744 C 102.330 184.744,102.960 184.589,103.400 184.400 C 103.904 184.183,103.978 184.056,103.600 184.056 C 103.270 184.056,102.640 184.211,102.200 184.400 M125.000 184.400 C 125.440 184.589,126.070 184.744,126.400 184.744 C 126.778 184.744,126.704 184.617,126.200 184.400 C 125.760 184.211,125.130 184.056,124.800 184.056 C 124.422 184.056,124.496 184.183,125.000 184.400 M209.000 184.423 C 211.026 184.842,212.663 184.823,211.000 184.400 C 210.340 184.232,209.260 184.094,208.600 184.093 C 207.591 184.092,207.655 184.145,209.000 184.423 M241.000 184.400 C 239.930 184.672,239.908 184.705,240.800 184.705 C 241.350 184.705,242.340 184.568,243.000 184.400 C 244.070 184.128,244.092 184.095,243.200 184.095 C 242.650 184.095,241.660 184.232,241.000 184.400 M250.400 184.284 C 250.730 184.405,251.585 184.741,252.300 185.032 C 253.015 185.322,253.600 185.469,253.600 185.359 C 253.600 185.074,250.926 183.994,250.313 184.032 C 249.980 184.052,250.011 184.141,250.400 184.284 M263.800 184.400 C 263.296 184.617,263.222 184.744,263.600 184.744 C 263.930 184.744,264.560 184.589,265.000 184.400 C 265.504 184.183,265.578 184.056,265.200 184.056 C 264.870 184.056,264.240 184.211,263.800 184.400 M270.600 184.400 C 271.040 184.589,271.670 184.744,272.000 184.744 C 272.378 184.744,272.304 184.617,271.800 184.400 C 271.360 184.211,270.730 184.056,270.400 184.056 C 270.022 184.056,270.096 184.183,270.600 184.400 M294.200 184.400 C 293.696 184.617,293.622 184.744,294.000 184.744 C 294.330 184.744,294.960 184.589,295.400 184.400 C 295.904 184.183,295.978 184.056,295.600 184.056 C 295.270 184.056,294.640 184.211,294.200 184.400 M311.800 184.400 C 312.240 184.589,312.960 184.738,313.400 184.732 C 314.043 184.723,314.004 184.657,313.200 184.400 C 311.832 183.962,310.781 183.962,311.800 184.400 M193.200 185.200 C 192.376 185.464,192.341 185.526,193.000 185.554 C 193.440 185.573,194.070 185.413,194.400 185.200 C 195.101 184.747,194.614 184.747,193.200 185.200 M213.400 185.200 C 213.840 185.389,214.470 185.544,214.800 185.544 C 215.178 185.544,215.104 185.417,214.600 185.200 C 214.160 185.011,213.530 184.856,213.200 184.856 C 212.822 184.856,212.896 184.983,213.400 185.200 M237.600 185.200 C 236.776 185.464,236.741 185.526,237.400 185.554 C 237.840 185.573,238.470 185.413,238.800 185.200 C 239.501 184.747,239.014 184.747,237.600 185.200 M261.189 185.459 C 260.645 185.822,259.451 186.833,258.535 187.708 L 256.871 189.297 256.276 188.148 C 255.949 187.515,255.258 186.640,254.741 186.202 L 253.800 185.406 254.626 186.403 C 255.081 186.951,255.773 187.915,256.165 188.545 L 256.878 189.690 258.539 188.084 C 259.452 187.200,260.830 186.100,261.600 185.640 C 262.370 185.180,262.815 184.802,262.589 184.801 C 262.363 184.801,261.733 185.097,261.189 185.459 M316.691 185.998 C 319.164 187.228,321.173 188.880,322.529 190.800 C 323.182 191.725,323.181 191.699,322.517 190.459 C 321.412 188.393,317.786 185.698,315.200 185.021 C 314.650 184.877,315.321 185.317,316.691 185.998 M333.692 186.048 C 332.361 186.735,330.491 188.119,329.536 189.123 L 327.800 190.951 329.939 189.079 C 331.115 188.050,333.185 186.671,334.539 186.014 C 335.892 185.358,336.800 184.816,336.556 184.810 C 336.312 184.805,335.023 185.362,333.692 186.048 M41.029 186.229 C 40.881 186.815,40.838 187.372,40.932 187.466 C 41.027 187.560,41.224 187.158,41.371 186.571 C 41.519 185.985,41.562 185.428,41.468 185.334 C 41.373 185.240,41.176 185.642,41.029 186.229 M89.849 185.815 C 89.712 186.173,89.615 186.766,89.634 187.133 C 89.653 187.500,89.827 187.269,90.021 186.620 C 90.398 185.358,90.265 184.733,89.849 185.815 M63.449 186.215 C 63.312 186.573,63.215 187.166,63.234 187.533 C 63.253 187.900,63.427 187.669,63.621 187.020 C 63.998 185.758,63.865 185.133,63.449 186.215 M365.233 185.749 C 365.645 186.117,368.000 187.200,368.000 187.021 C 368.000 186.790,365.782 185.600,365.353 185.600 C 365.196 185.600,365.142 185.667,365.233 185.749 M132.391 187.083 C 132.935 187.477,134.015 188.332,134.791 188.982 L 136.200 190.164 135.118 188.979 C 134.523 188.327,133.443 187.472,132.718 187.079 C 131.449 186.392,131.437 186.392,132.391 187.083 M218.143 186.894 C 222.212 189.664,224.195 191.945,225.679 195.563 C 226.174 196.770,226.348 196.989,226.186 196.200 C 225.551 193.113,221.788 188.474,218.746 187.028 C 218.006 186.676,217.734 186.616,218.143 186.894 M232.838 187.500 C 230.992 189.227,231.258 192.400,233.247 192.400 C 233.461 192.400,233.171 191.935,232.602 191.366 C 231.339 190.103,231.530 189.065,233.315 187.500 C 234.005 186.895,234.444 186.400,234.291 186.400 C 234.138 186.400,233.484 186.895,232.838 187.500 M78.428 187.174 C 78.378 188.189,79.949 190.983,80.889 191.550 C 81.685 192.030,81.662 191.953,80.710 190.938 C 80.110 190.299,79.357 189.062,79.038 188.188 C 78.718 187.315,78.444 186.858,78.428 187.174 M93.291 189.900 C 92.023 191.519,91.047 193.200,91.376 193.200 C 91.488 193.200,91.842 192.692,92.164 192.070 C 92.485 191.449,93.282 190.369,93.934 189.670 C 94.587 188.972,94.974 188.400,94.794 188.400 C 94.614 188.400,93.938 189.075,93.291 189.900 M277.530 189.982 C 277.898 190.851,278.256 191.404,278.324 191.209 C 278.450 190.849,277.313 188.400,277.019 188.400 C 276.931 188.400,277.161 189.112,277.530 189.982 M283.192 190.115 C 282.418 190.822,281.342 191.940,280.801 192.600 C 280.261 193.260,280.939 192.726,282.309 191.413 C 284.562 189.253,285.008 188.769,284.700 188.815 C 284.645 188.823,283.966 189.408,283.192 190.115 M139.234 191.378 C 140.023 192.270,141.058 193.519,141.534 194.154 C 142.010 194.789,142.400 195.108,142.400 194.865 C 142.400 194.621,141.365 193.371,140.100 192.088 C 138.835 190.805,138.445 190.485,139.234 191.378 M111.700 191.186 C 110.985 191.627,110.414 192.216,110.432 192.494 C 110.457 192.899,110.504 192.899,110.668 192.492 C 111.033 191.584,113.114 190.800,115.159 190.800 L 117.158 190.800 117.317 192.900 L 117.476 195.000 117.438 192.800 L 117.400 190.600 115.200 190.492 C 113.558 190.411,112.671 190.587,111.700 191.186 M347.872 190.681 C 347.763 190.856,348.726 190.940,350.012 190.866 L 352.351 190.731 352.515 192.369 L 352.678 194.006 352.639 192.303 L 352.600 190.600 350.335 190.481 C 349.090 190.416,347.981 190.506,347.872 190.681 M61.829 192.229 C 61.681 192.815,61.638 193.372,61.732 193.466 C 61.827 193.560,62.024 193.158,62.171 192.571 C 62.319 191.985,62.362 191.428,62.268 191.334 C 62.173 191.240,61.976 191.642,61.829 192.229 M67.673 193.411 C 64.743 195.948,61.064 196.710,61.446 194.700 C 61.603 193.871,61.588 193.863,61.258 194.600 C 60.113 197.157,64.435 196.611,67.777 193.775 C 70.042 191.854,70.720 191.164,70.300 191.211 C 70.245 191.217,69.063 192.207,67.673 193.411 M301.050 191.519 C 300.926 191.720,301.252 191.803,301.775 191.703 C 302.454 191.573,302.787 191.732,302.940 192.260 C 303.126 192.904,303.144 192.896,303.073 192.200 C 302.988 191.366,301.462 190.852,301.050 191.519 M346.221 191.977 C 345.834 192.404,345.612 192.989,345.727 193.277 C 345.889 193.680,345.944 193.669,345.968 193.231 C 345.986 192.919,346.298 192.334,346.662 191.931 C 347.026 191.529,347.234 191.200,347.124 191.200 C 347.014 191.200,346.608 191.550,346.221 191.977 M372.068 192.000 C 372.088 193.039,372.718 194.746,372.732 193.800 C 372.738 193.360,372.589 192.640,372.400 192.200 C 372.189 191.710,372.061 191.632,372.068 192.000 M83.305 192.287 C 83.914 192.379,84.814 192.377,85.305 192.282 C 85.797 192.187,85.300 192.111,84.200 192.114 C 83.100 192.117,82.697 192.195,83.305 192.287 M136.909 193.600 C 136.909 194.590,136.987 194.995,137.082 194.500 C 137.178 194.005,137.178 193.195,137.082 192.700 C 136.987 192.205,136.909 192.610,136.909 193.600 M178.104 194.162 C 176.041 196.419,173.371 200.212,172.960 201.468 C 172.828 201.871,173.218 201.390,173.826 200.400 C 175.343 197.930,177.036 195.716,178.952 193.700 C 179.840 192.765,180.457 192.000,180.323 192.000 C 180.190 192.000,179.191 192.973,178.104 194.162 M200.975 193.300 L 199.800 194.600 201.022 193.500 C 203.325 191.427,204.761 192.203,204.874 195.580 L 204.948 197.800 205.096 195.656 C 205.348 192.024,203.225 190.810,200.975 193.300 M278.467 193.700 C 278.393 195.787,278.711 196.076,279.568 194.700 C 280.074 193.888,280.066 193.851,279.490 194.328 C 278.928 194.792,278.833 194.673,278.693 193.328 C 278.544 191.894,278.530 191.917,278.467 193.700 M166.661 193.100 C 166.558 193.265,167.582 193.350,168.937 193.289 C 173.348 193.089,173.870 192.929,170.324 192.864 C 168.412 192.829,166.763 192.935,166.661 193.100 M38.846 194.067 C 38.821 194.434,38.696 195.064,38.570 195.467 C 38.352 196.162,38.363 196.163,38.797 195.487 C 39.048 195.096,39.173 194.466,39.073 194.087 C 38.911 193.468,38.888 193.466,38.846 194.067 M325.850 195.250 C 325.517 196.917,325.840 197.240,326.200 195.600 C 326.352 194.909,326.393 194.259,326.291 194.158 C 326.189 194.056,325.991 194.547,325.850 195.250 M324.101 196.200 C 324.105 197.080,324.187 197.393,324.283 196.895 C 324.379 196.398,324.375 195.678,324.275 195.295 C 324.175 194.913,324.096 195.320,324.101 196.200 M345.602 195.114 C 345.599 195.920,346.827 197.591,347.757 198.043 C 348.566 198.437,348.564 198.424,347.720 197.727 C 347.236 197.327,346.562 196.460,346.222 195.800 C 345.883 195.140,345.604 194.831,345.602 195.114 M352.800 195.089 C 352.800 195.321,353.171 195.936,353.624 196.456 L 354.447 197.400 353.745 196.200 C 352.820 194.621,352.800 194.597,352.800 195.089 M302.860 196.067 C 302.827 196.654,302.696 197.464,302.570 197.867 C 302.352 198.560,302.365 198.561,302.795 197.890 C 303.046 197.499,303.177 196.689,303.086 196.090 L 302.920 195.000 302.860 196.067 M110.400 195.905 C 110.400 196.445,112.887 198.618,114.405 199.403 C 116.232 200.347,115.826 199.808,113.829 198.638 C 112.855 198.068,111.685 197.126,111.229 196.546 C 110.773 195.967,110.400 195.678,110.400 195.905 M142.501 197.000 C 142.505 197.880,142.587 198.193,142.683 197.695 C 142.779 197.198,142.775 196.478,142.675 196.095 C 142.575 195.713,142.496 196.120,142.501 197.000 M258.409 196.835 C 258.964 197.039,259.724 197.700,260.099 198.303 C 260.473 198.906,260.784 199.201,260.789 198.958 C 260.807 198.218,258.884 196.398,258.119 196.432 C 257.605 196.454,257.688 196.569,258.409 196.835 M370.626 197.900 C 369.762 199.005,369.693 199.190,370.363 198.604 C 371.165 197.904,372.223 196.400,371.914 196.400 C 371.851 196.400,371.272 197.075,370.626 197.900 M90.120 198.800 C 90.120 200.010,90.195 200.505,90.287 199.900 C 90.378 199.295,90.378 198.305,90.287 197.700 C 90.195 197.095,90.120 197.590,90.120 198.800 M118.974 197.552 C 119.975 198.683,122.371 200.162,122.688 199.846 C 122.823 199.711,122.737 199.600,122.497 199.600 C 122.257 199.600,121.192 198.943,120.131 198.139 C 119.069 197.336,118.548 197.072,118.974 197.552 M256.516 197.300 C 255.828 198.201,255.115 200.348,255.328 200.880 C 255.460 201.207,255.549 201.134,255.568 200.681 C 255.586 200.285,255.944 199.250,256.364 198.381 C 257.145 196.764,257.194 196.412,256.516 197.300 M134.977 198.115 C 134.745 198.382,134.115 198.923,133.577 199.317 C 132.638 200.007,132.651 200.007,133.931 199.317 C 135.307 198.575,136.361 197.589,135.749 197.615 C 135.557 197.624,135.210 197.849,134.977 198.115 M226.509 199.200 C 226.509 200.190,226.587 200.595,226.682 200.100 C 226.778 199.605,226.778 198.795,226.682 198.300 C 226.587 197.805,226.509 198.210,226.509 199.200 M355.182 198.178 C 355.880 199.019,357.995 200.138,358.304 199.829 C 358.430 199.703,358.348 199.600,358.122 199.600 C 357.897 199.600,357.016 199.128,356.167 198.552 C 355.317 197.975,354.874 197.807,355.182 198.178 M204.250 200.050 C 203.917 201.717,204.240 202.040,204.600 200.400 C 204.752 199.709,204.793 199.059,204.691 198.958 C 204.589 198.856,204.391 199.347,204.250 200.050 M301.478 200.205 C 301.112 200.972,300.895 201.600,300.996 201.600 C 301.270 201.600,302.484 199.151,302.301 198.968 C 302.214 198.881,301.844 199.438,301.478 200.205 M323.429 199.829 C 323.281 200.415,323.238 200.972,323.332 201.066 C 323.427 201.160,323.624 200.758,323.771 200.171 C 323.919 199.585,323.962 199.028,323.868 198.934 C 323.773 198.840,323.576 199.242,323.429 199.829 M37.246 199.667 C 37.221 200.034,37.096 200.664,36.970 201.067 C 36.752 201.762,36.763 201.763,37.197 201.087 C 37.448 200.696,37.573 200.066,37.473 199.687 C 37.311 199.068,37.288 199.066,37.246 199.667 M75.429 200.629 C 75.281 201.215,75.238 201.772,75.332 201.866 C 75.427 201.960,75.624 201.558,75.771 200.971 C 75.919 200.385,75.962 199.828,75.868 199.734 C 75.773 199.640,75.576 200.042,75.429 200.629 M261.328 200.630 C 262.030 202.022,264.945 204.801,265.701 204.799 C 265.976 204.798,265.636 204.453,264.946 204.033 C 264.257 203.612,263.187 202.578,262.568 201.734 C 260.946 199.520,260.625 199.235,261.328 200.630 M130.400 200.400 C 129.596 200.657,129.557 200.723,130.200 200.732 C 130.640 200.738,131.360 200.589,131.800 200.400 C 132.819 199.962,131.768 199.962,130.400 200.400 M359.400 200.400 C 359.840 200.589,360.560 200.738,361.000 200.732 C 361.643 200.723,361.604 200.657,360.800 200.400 C 359.432 199.962,358.381 199.962,359.400 200.400 M365.800 200.400 C 365.296 200.617,365.222 200.744,365.600 200.744 C 365.930 200.744,366.560 200.589,367.000 200.400 C 367.504 200.183,367.578 200.056,367.200 200.056 C 366.870 200.056,366.240 200.211,365.800 200.400 M118.800 201.600 C 119.570 202.022,120.380 202.366,120.600 202.366 C 120.820 202.366,120.370 202.022,119.600 201.600 C 118.830 201.178,118.020 200.834,117.800 200.834 C 117.580 200.834,118.030 201.178,118.800 201.600 M90.650 202.400 C 91.211 204.725,94.049 207.919,97.155 209.723 C 99.148 210.879,98.591 210.206,96.384 208.790 C 94.166 207.367,92.023 204.963,91.043 202.800 C 90.649 201.932,90.500 201.780,90.650 202.400 M295.421 202.658 C 295.110 203.896,295.610 204.553,296.658 204.284 C 297.250 204.131,297.212 204.083,296.468 204.046 C 295.647 204.005,295.568 203.858,295.800 202.800 C 296.125 201.321,295.788 201.195,295.421 202.658 M322.367 202.500 C 322.113 202.995,321.252 204.120,320.453 204.999 L 319.000 206.599 320.534 205.199 C 321.906 203.948,323.530 201.600,323.024 201.600 C 322.916 201.600,322.621 202.005,322.367 202.500 M226.514 203.800 C 226.517 204.900,226.595 205.303,226.687 204.695 C 226.779 204.086,226.777 203.186,226.682 202.695 C 226.587 202.203,226.511 202.700,226.514 203.800 M274.600 203.313 C 274.160 203.758,274.045 203.982,274.345 203.810 C 274.658 203.630,275.017 203.703,275.189 203.983 C 275.394 204.314,275.558 204.204,275.707 203.634 C 276.008 202.482,275.551 202.349,274.600 203.313 M357.600 203.200 C 358.370 203.622,359.180 203.966,359.400 203.966 C 359.620 203.966,359.170 203.622,358.400 203.200 C 357.630 202.778,356.820 202.434,356.600 202.434 C 356.380 202.434,356.830 202.778,357.600 203.200 M58.584 204.027 C 58.439 204.261,58.428 204.561,58.560 204.693 C 58.692 204.825,58.800 204.723,58.800 204.467 C 58.800 203.725,62.407 203.883,63.269 204.662 C 64.161 205.470,64.248 205.105,63.371 204.229 C 62.647 203.504,59.001 203.351,58.584 204.027 M360.000 204.179 C 360.000 204.289,360.540 204.659,361.200 205.000 C 361.860 205.341,362.400 205.531,362.400 205.421 C 362.400 205.311,361.860 204.941,361.200 204.600 C 360.540 204.259,360.000 204.069,360.000 204.179 M35.646 205.267 C 35.621 205.634,35.496 206.264,35.370 206.667 C 35.152 207.362,35.163 207.363,35.597 206.687 C 35.848 206.296,35.973 205.666,35.873 205.287 C 35.711 204.668,35.688 204.666,35.646 205.267 M126.000 204.948 C 126.000 205.041,126.903 205.696,128.008 206.405 C 129.112 207.113,130.374 208.150,130.813 208.708 C 131.252 209.266,131.707 209.627,131.823 209.510 C 132.098 209.235,128.526 206.089,127.100 205.350 C 126.495 205.036,126.000 204.855,126.000 204.948 M267.491 205.089 C 268.201 205.177,269.461 205.179,270.291 205.092 C 271.121 205.005,270.540 204.933,269.000 204.931 C 267.460 204.929,266.781 205.000,267.491 205.089 M328.059 205.911 C 328.565 206.521,329.524 207.452,330.189 207.979 C 330.855 208.506,330.507 208.007,329.415 206.869 C 327.249 204.611,326.607 204.158,328.059 205.911 M274.618 207.018 C 274.465 208.039,274.422 208.955,274.522 209.055 C 274.622 209.155,274.829 208.402,274.982 207.382 C 275.135 206.361,275.178 205.445,275.078 205.345 C 274.978 205.245,274.771 205.998,274.618 207.018 M365.462 208.004 C 366.375 208.992,367.500 210.430,367.960 211.200 C 368.420 211.970,368.798 212.402,368.799 212.160 C 368.801 211.512,366.705 208.779,365.152 207.404 C 364.095 206.469,364.162 206.599,365.462 208.004 M170.622 208.222 C 170.472 209.025,170.428 209.762,170.526 209.860 C 170.624 209.957,170.827 209.381,170.978 208.578 C 171.128 207.775,171.172 207.038,171.074 206.940 C 170.976 206.843,170.773 207.419,170.622 208.222 M225.829 207.829 C 225.681 208.415,225.638 208.972,225.732 209.066 C 225.827 209.160,226.024 208.758,226.171 208.171 C 226.319 207.585,226.362 207.028,226.268 206.934 C 226.173 206.840,225.976 207.242,225.829 207.829 M34.846 208.067 C 34.821 208.434,34.696 209.064,34.570 209.467 C 34.352 210.162,34.363 210.163,34.797 209.487 C 35.048 209.096,35.173 208.466,35.073 208.087 C 34.911 207.468,34.888 207.466,34.846 208.067 M72.002 209.127 C 71.006 210.177,70.882 210.419,71.573 209.971 C 72.398 209.435,73.991 207.546,73.549 207.627 C 73.467 207.643,72.771 208.318,72.002 209.127 M57.049 209.015 C 56.912 209.373,56.815 209.966,56.834 210.333 C 56.853 210.700,57.027 210.469,57.221 209.820 C 57.598 208.558,57.465 207.933,57.049 209.015 M193.849 209.415 C 193.712 209.773,193.615 210.366,193.634 210.733 C 193.653 211.100,193.827 210.869,194.021 210.220 C 194.398 208.958,194.265 208.333,193.849 209.415 M311.400 209.200 C 310.896 209.417,310.822 209.544,311.200 209.544 C 311.530 209.544,312.160 209.389,312.600 209.200 C 313.104 208.983,313.178 208.856,312.800 208.856 C 312.470 208.856,311.840 209.011,311.400 209.200 M332.199 209.412 C 333.172 210.169,341.963 214.656,341.400 214.109 C 341.180 213.896,338.840 212.611,336.200 211.256 C 333.560 209.900,331.759 209.070,332.199 209.412 M294.545 210.200 C 294.424 210.516,294.516 211.275,294.749 211.887 C 295.145 212.925,295.158 212.900,294.946 211.520 L 294.718 210.040 297.659 210.275 C 299.277 210.405,300.510 210.421,300.400 210.311 C 299.832 209.745,294.756 209.649,294.545 210.200 M305.400 210.000 C 303.480 210.263,303.464 210.276,305.000 210.308 C 305.880 210.326,307.410 210.197,308.400 210.020 C 310.770 209.599,308.441 209.583,305.400 210.000 M132.730 211.582 C 133.098 212.451,133.456 213.004,133.524 212.809 C 133.650 212.449,132.513 210.000,132.219 210.000 C 132.131 210.000,132.361 210.712,132.730 211.582 M34.046 210.867 C 34.021 211.234,33.896 211.864,33.770 212.267 C 33.552 212.962,33.563 212.963,33.997 212.287 C 34.248 211.896,34.373 211.266,34.273 210.887 C 34.111 210.268,34.088 210.266,34.046 210.867 M80.200 210.864 C 80.640 211.106,81.327 211.686,81.727 212.152 L 82.454 213.000 82.018 212.109 C 81.602 211.259,80.423 210.386,79.726 210.412 C 79.547 210.419,79.760 210.622,80.200 210.864 M56.249 211.815 C 56.112 212.173,56.015 212.766,56.034 213.133 C 56.053 213.500,56.227 213.269,56.421 212.620 C 56.798 211.358,56.665 210.733,56.249 211.815 M87.800 211.600 C 87.296 211.817,87.222 211.944,87.600 211.944 C 87.930 211.944,88.560 211.789,89.000 211.600 C 89.504 211.383,89.578 211.256,89.200 211.256 C 88.870 211.256,88.240 211.411,87.800 211.600 M94.200 211.600 C 94.640 211.789,95.270 211.944,95.600 211.944 C 95.978 211.944,95.904 211.817,95.400 211.600 C 94.960 211.411,94.330 211.256,94.000 211.256 C 93.622 211.256,93.696 211.383,94.200 211.600 M97.191 212.683 C 97.735 213.077,98.815 213.932,99.591 214.582 L 101.000 215.764 99.918 214.579 C 99.323 213.927,98.243 213.072,97.518 212.679 C 96.249 211.992,96.237 211.992,97.191 212.683 M160.229 213.029 C 160.081 213.615,160.038 214.172,160.132 214.266 C 160.227 214.360,160.424 213.958,160.571 213.371 C 160.719 212.785,160.762 212.228,160.668 212.134 C 160.573 212.040,160.376 212.442,160.229 213.029 M170.109 213.600 C 170.109 214.590,170.187 214.995,170.282 214.500 C 170.378 214.005,170.378 213.195,170.282 212.700 C 170.187 212.205,170.109 212.610,170.109 213.600 M320.378 213.500 L 319.000 215.000 320.596 213.600 C 321.473 212.830,322.268 212.155,322.362 212.100 C 322.456 212.045,322.359 212.000,322.145 212.000 C 321.932 212.000,321.137 212.675,320.378 213.500 M84.713 213.500 C 83.985 214.335,83.081 216.018,83.268 216.192 C 83.340 216.260,83.888 215.525,84.485 214.558 C 85.637 212.690,85.709 212.359,84.713 213.500 M368.931 215.400 C 368.933 216.940,369.005 217.521,369.092 216.691 C 369.179 215.861,369.177 214.601,369.089 213.891 C 369.000 213.181,368.929 213.860,368.931 215.400 M33.246 213.667 C 33.221 214.034,33.096 214.664,32.970 215.067 C 32.752 215.762,32.763 215.763,33.197 215.087 C 33.448 214.696,33.573 214.066,33.473 213.687 C 33.311 213.068,33.288 213.066,33.246 213.667 M68.416 216.759 C 66.626 218.717,64.586 220.602,63.881 220.950 C 63.177 221.297,62.842 221.586,63.138 221.591 C 63.434 221.596,64.168 221.250,64.769 220.822 C 65.878 220.032,72.245 213.200,71.872 213.200 C 71.760 213.200,70.205 214.802,68.416 216.759 M295.212 213.478 C 295.205 213.740,295.605 214.379,296.100 214.897 C 296.595 215.415,296.800 215.560,296.556 215.220 C 296.312 214.879,295.912 214.240,295.668 213.800 C 295.424 213.360,295.219 213.215,295.212 213.478 M133.701 215.400 C 133.705 216.280,133.787 216.593,133.883 216.095 C 133.979 215.598,133.975 214.878,133.875 214.495 C 133.775 214.113,133.696 214.520,133.701 215.400 M223.000 215.200 C 222.659 215.860,222.469 216.400,222.579 216.400 C 222.689 216.400,223.059 215.860,223.400 215.200 C 223.741 214.540,223.931 214.000,223.821 214.000 C 223.711 214.000,223.341 214.540,223.000 215.200 M274.487 214.800 C 274.483 215.350,274.624 216.250,274.800 216.800 C 275.231 218.144,275.231 216.692,274.800 215.000 C 274.526 213.922,274.494 213.902,274.487 214.800 M343.519 215.587 C 346.376 217.657,346.855 220.007,344.831 222.031 C 344.188 222.674,343.812 223.200,343.995 223.200 C 344.841 223.200,346.400 220.672,346.400 219.301 C 346.400 217.859,343.529 214.400,342.333 214.400 C 342.084 214.400,342.618 214.934,343.519 215.587 M192.256 215.684 C 192.121 216.188,192.027 216.960,192.046 217.400 C 192.065 217.840,192.245 217.498,192.446 216.640 C 192.836 214.978,192.670 214.140,192.256 215.684 M315.600 215.155 C 316.990 215.403,317.000 215.419,316.942 217.402 C 316.902 218.787,316.986 219.155,317.214 218.600 C 318.151 216.327,317.404 214.767,315.420 214.853 C 314.208 214.905,314.209 214.907,315.600 215.155 M335.806 215.712 C 336.192 216.324,336.609 216.724,336.732 216.601 C 336.855 216.478,336.539 215.978,336.030 215.489 L 335.104 214.600 335.806 215.712 M81.849 215.815 C 81.712 216.173,81.615 216.766,81.634 217.133 C 81.653 217.500,81.827 217.269,82.021 216.620 C 82.398 215.358,82.265 214.733,81.849 215.815 M32.446 216.467 C 32.421 216.834,32.296 217.464,32.170 217.867 C 31.952 218.562,31.963 218.563,32.397 217.887 C 32.648 217.496,32.773 216.866,32.673 216.487 C 32.511 215.868,32.488 215.866,32.446 216.467 M110.084 217.584 C 111.008 219.451,110.644 221.256,109.089 222.527 L 108.200 223.254 109.134 222.795 C 111.163 221.797,111.586 217.882,109.824 216.420 C 109.510 216.160,109.619 216.643,110.084 217.584 M309.800 216.400 C 309.296 216.617,309.222 216.744,309.600 216.744 C 309.930 216.744,310.560 216.589,311.000 216.400 C 311.504 216.183,311.578 216.056,311.200 216.056 C 310.870 216.056,310.240 216.211,309.800 216.400 M159.234 217.056 C 159.215 217.526,159.515 218.255,159.900 218.675 C 160.285 219.094,160.453 219.216,160.272 218.944 C 160.092 218.673,159.792 217.945,159.607 217.326 C 159.333 216.413,159.262 216.362,159.234 217.056 M170.468 217.000 C 170.462 217.440,170.611 218.160,170.800 218.600 C 171.238 219.619,171.238 218.568,170.800 217.200 C 170.543 216.396,170.477 216.357,170.468 217.000 M54.629 217.829 C 54.481 218.415,54.438 218.972,54.532 219.066 C 54.627 219.160,54.824 218.758,54.971 218.171 C 55.119 217.585,55.162 217.028,55.068 216.934 C 54.973 216.840,54.776 217.242,54.629 217.829 M136.200 218.000 C 136.048 218.691,136.007 219.341,136.109 219.442 C 136.211 219.544,136.409 219.053,136.550 218.350 C 136.883 216.683,136.560 216.360,136.200 218.000 M299.800 217.204 C 300.567 217.530,303.911 217.753,303.567 217.456 C 303.475 217.377,302.410 217.211,301.200 217.088 C 299.831 216.949,299.302 216.992,299.800 217.204 M306.000 217.200 L 304.200 217.480 305.800 217.512 C 306.680 217.529,307.760 217.389,308.200 217.200 C 309.127 216.802,308.561 216.802,306.000 217.200 M82.909 218.800 C 82.909 219.790,82.987 220.195,83.082 219.700 C 83.178 219.205,83.178 218.395,83.082 217.900 C 82.987 217.405,82.909 217.810,82.909 218.800 M101.862 219.000 C 101.996 219.880,102.172 220.675,102.253 220.767 C 102.556 221.110,102.329 218.968,101.981 218.200 C 101.729 217.642,101.693 217.885,101.862 219.000 M81.049 218.615 C 80.912 218.973,80.815 219.566,80.834 219.933 C 80.853 220.300,81.027 220.069,81.221 219.420 C 81.598 218.158,81.465 217.533,81.049 218.615 M218.400 221.151 C 216.750 222.861,214.770 224.759,214.000 225.368 L 212.600 226.476 214.200 225.378 C 216.173 224.024,218.872 221.492,220.467 219.500 C 222.234 217.292,221.751 217.678,218.400 221.151 M163.400 219.600 L 161.000 219.866 163.200 219.893 C 164.410 219.908,165.850 219.776,166.400 219.600 C 167.614 219.211,166.913 219.211,163.400 219.600 M168.571 219.729 C 169.626 220.500,169.093 222.335,167.134 224.673 L 165.521 226.600 167.330 224.695 C 169.744 222.153,170.252 219.200,168.275 219.200 C 168.039 219.200,168.173 219.438,168.571 219.729 M53.860 220.493 C 53.498 221.875,53.992 222.042,58.036 221.899 L 61.800 221.766 57.892 221.683 L 53.985 221.600 54.236 220.600 C 54.374 220.050,54.398 219.600,54.290 219.600 C 54.182 219.600,53.988 220.002,53.860 220.493 M249.049 220.215 C 248.912 220.573,248.815 221.166,248.834 221.533 C 248.853 221.900,249.027 221.669,249.221 221.020 C 249.598 219.758,249.465 219.133,249.049 220.215 M315.868 221.026 C 315.497 221.805,314.346 223.377,313.310 224.521 L 311.427 226.600 313.146 225.000 C 314.814 223.448,317.079 220.145,316.720 219.787 C 316.623 219.690,316.240 220.247,315.868 221.026 M131.452 222.065 C 130.853 222.980,130.653 223.488,131.008 223.194 C 131.612 222.692,132.985 220.400,132.681 220.400 C 132.605 220.400,132.052 221.149,131.452 222.065 M196.137 221.823 C 195.443 222.603,195.067 223.178,195.303 223.099 C 195.718 222.961,197.855 220.398,197.551 220.402 C 197.468 220.403,196.832 221.043,196.137 221.823 M80.249 221.415 C 80.112 221.773,80.015 222.366,80.034 222.733 C 80.053 223.100,80.227 222.869,80.421 222.220 C 80.798 220.958,80.665 220.333,80.249 221.415 M366.526 222.542 C 365.132 224.520,363.474 225.878,360.358 227.596 C 359.171 228.250,358.391 228.789,358.624 228.793 C 360.191 228.820,365.966 224.320,367.332 222.007 C 368.372 220.247,367.943 220.531,366.526 222.542 M83.216 221.320 C 83.179 222.056,84.434 223.893,85.866 225.199 L 87.400 226.599 85.946 224.999 C 85.146 224.120,84.208 222.860,83.862 222.200 C 83.515 221.540,83.225 221.144,83.216 221.320 M102.040 222.092 C 102.009 222.951,102.214 223.229,103.000 223.392 C 103.550 223.507,104.413 223.684,104.919 223.787 C 105.424 223.890,106.369 223.800,107.019 223.587 L 108.200 223.199 107.000 223.361 C 104.672 223.676,102.660 223.084,102.357 221.996 L 102.080 221.000 102.040 222.092 M277.114 222.204 C 277.341 222.647,277.948 223.366,278.463 223.802 C 279.367 224.566,279.365 224.552,278.406 223.397 C 276.813 221.479,276.679 221.355,277.114 222.204 M248.832 223.230 C 248.814 223.577,249.295 224.297,249.900 224.830 L 251.000 225.800 250.151 224.800 C 249.684 224.250,249.203 223.530,249.082 223.200 C 248.895 222.686,248.859 222.691,248.832 223.230 M338.433 223.343 C 338.525 223.422,339.320 223.597,340.200 223.732 C 341.290 223.899,341.609 223.855,341.200 223.595 C 340.653 223.246,338.045 223.009,338.433 223.343 M223.329 225.215 C 220.539 227.330,220.116 229.347,222.289 230.178 C 222.830 230.384,222.785 230.249,222.100 229.609 C 220.556 228.168,220.722 227.838,224.600 224.621 C 226.453 223.083,225.641 223.463,223.329 225.215 M174.974 225.493 C 175.840 226.424,176.635 227.099,176.741 226.993 C 176.847 226.887,176.856 226.755,176.762 226.700 C 176.668 226.645,175.873 225.970,174.996 225.201 L 173.400 223.801 174.974 225.493 M26.401 225.798 C 25.886 226.348,25.539 226.864,25.632 226.946 C 25.724 227.028,26.219 226.578,26.730 225.947 C 27.876 224.535,27.674 224.444,26.401 225.798 M280.276 225.644 C 280.758 226.170,281.748 226.943,282.476 227.362 C 284.141 228.321,283.917 228.077,281.400 226.188 C 280.222 225.305,279.760 225.081,280.276 225.644 M137.483 226.400 C 138.161 227.660,141.638 230.400,142.557 230.400 C 142.759 230.400,141.816 229.684,140.462 228.809 C 139.108 227.934,138.000 227.068,138.000 226.885 C 138.000 226.702,137.714 226.204,137.364 225.776 C 136.930 225.246,136.967 225.443,137.483 226.400 M87.600 226.596 C 87.600 226.870,90.049 228.084,90.232 227.901 C 90.319 227.814,89.762 227.444,88.995 227.078 C 88.228 226.712,87.600 226.495,87.600 226.596 M210.000 227.600 C 208.790 228.239,207.941 228.771,208.113 228.781 C 208.538 228.807,212.400 226.836,212.400 226.593 C 212.400 226.326,212.455 226.303,210.000 227.600 M177.200 227.379 C 177.200 227.489,177.740 227.859,178.400 228.200 C 179.060 228.541,179.600 228.731,179.600 228.621 C 179.600 228.511,179.060 228.141,178.400 227.800 C 177.740 227.459,177.200 227.269,177.200 227.379 M328.600 229.200 C 329.040 229.389,329.670 229.544,330.000 229.544 C 330.378 229.544,330.304 229.417,329.800 229.200 C 329.360 229.011,328.730 228.856,328.400 228.856 C 328.022 228.856,328.096 228.983,328.600 229.200 M96.400 230.000 C 96.950 230.176,97.760 230.320,98.200 230.320 C 98.833 230.320,98.792 230.254,98.000 230.000 C 97.450 229.824,96.640 229.680,96.200 229.680 C 95.567 229.680,95.608 229.746,96.400 230.000 M117.800 230.000 C 116.781 230.438,117.832 230.438,119.200 230.000 C 120.004 229.743,120.043 229.677,119.400 229.668 C 118.960 229.662,118.240 229.811,117.800 230.000 M288.600 230.000 C 289.040 230.189,289.670 230.344,290.000 230.344 C 290.378 230.344,290.304 230.217,289.800 230.000 C 289.360 229.811,288.730 229.656,288.400 229.656 C 288.022 229.656,288.096 229.783,288.600 230.000 M331.800 230.000 C 333.492 230.431,334.944 230.431,333.600 230.000 C 333.050 229.824,332.150 229.683,331.600 229.687 C 330.702 229.694,330.722 229.726,331.800 230.000 M353.200 230.000 C 352.408 230.254,352.367 230.320,353.000 230.320 C 353.440 230.320,354.250 230.176,354.800 230.000 C 355.592 229.746,355.633 229.680,355.000 229.680 C 354.560 229.680,353.750 229.824,353.200 230.000 M39.300 230.700 C 45.625 230.762,55.975 230.762,62.300 230.700 C 68.625 230.638,63.450 230.587,50.800 230.587 C 38.150 230.587,32.975 230.638,39.300 230.700 M102.200 230.815 C 104.677 231.123,112.663 231.312,112.367 231.056 C 112.275 230.976,109.410 230.822,106.000 230.714 C 102.418 230.600,100.814 230.642,102.200 230.815 M113.500 230.682 C 113.995 230.778,114.805 230.778,115.300 230.682 C 115.795 230.587,115.390 230.509,114.400 230.509 C 113.410 230.509,113.005 230.587,113.500 230.682 M143.800 230.800 C 144.240 230.989,144.870 231.144,145.200 231.144 C 145.578 231.144,145.504 231.017,145.000 230.800 C 144.560 230.611,143.930 230.456,143.600 230.456 C 143.222 230.456,143.296 230.583,143.800 230.800 M154.400 230.800 C 153.608 231.054,153.567 231.120,154.200 231.120 C 154.640 231.120,155.450 230.976,156.000 230.800 C 156.792 230.546,156.833 230.480,156.200 230.480 C 155.760 230.480,154.950 230.624,154.400 230.800 M185.800 230.800 C 187.492 231.231,188.944 231.231,187.600 230.800 C 187.050 230.624,186.150 230.483,185.600 230.487 C 184.702 230.494,184.722 230.526,185.800 230.800 M200.000 230.800 C 199.208 231.054,199.167 231.120,199.800 231.120 C 200.240 231.120,201.050 230.976,201.600 230.800 C 202.392 230.546,202.433 230.480,201.800 230.480 C 201.360 230.480,200.550 230.624,200.000 230.800 M230.100 230.699 C 233.785 230.765,239.815 230.765,243.500 230.699 C 247.185 230.633,244.170 230.579,236.800 230.579 C 229.430 230.579,226.415 230.633,230.100 230.699 M293.700 230.880 C 295.185 231.054,297.615 231.054,299.100 230.880 C 301.429 230.607,301.058 230.564,296.400 230.564 C 291.742 230.564,291.371 230.607,293.700 230.880 M337.400 230.857 C 340.514 231.190,346.803 231.192,349.600 230.860 C 350.810 230.717,348.020 230.600,343.400 230.600 C 338.702 230.600,336.058 230.713,337.400 230.857 M148.100 231.491 C 148.925 231.578,150.275 231.578,151.100 231.491 C 151.925 231.405,151.250 231.334,149.600 231.334 C 147.950 231.334,147.275 231.405,148.100 231.491 M192.100 231.494 C 193.145 231.576,194.855 231.576,195.900 231.494 C 196.945 231.412,196.090 231.344,194.000 231.344 C 191.910 231.344,191.055 231.412,192.100 231.494 "
              stroke="none" fill="#9dbae1" fill-rule="evenodd"></path>
        <path id="path3"
              d="M304.305 183.883 C 304.802 183.979,305.522 183.975,305.905 183.875 C 306.287 183.775,305.880 183.696,305.000 183.701 C 304.120 183.705,303.807 183.787,304.305 183.883 M178.800 193.800 C 177.828 194.790,177.123 195.600,177.233 195.600 C 177.343 195.600,178.228 194.790,179.200 193.800 C 180.172 192.810,180.877 192.000,180.767 192.000 C 180.657 192.000,179.772 192.810,178.800 193.800 M60.100 203.476 C 60.485 203.576,61.115 203.576,61.500 203.476 C 61.885 203.375,61.570 203.293,60.800 203.293 C 60.030 203.293,59.715 203.375,60.100 203.476 M301.100 210.282 C 301.595 210.378,302.405 210.378,302.900 210.282 C 303.395 210.187,302.990 210.109,302.000 210.109 C 301.010 210.109,300.605 210.187,301.100 210.282 M295.500 230.682 C 295.995 230.778,296.805 230.778,297.300 230.682 C 297.795 230.587,297.390 230.509,296.400 230.509 C 295.410 230.509,295.005 230.587,295.500 230.682 "
              stroke="none" fill="#7ea4d4" fill-rule="evenodd"></path>
        <path id="path4"
              d="M43.913 172.328 C 43.284 172.577,70.481 172.545,81.800 172.284 C 84.440 172.223,77.150 172.147,65.600 172.115 C 54.050 172.082,44.291 172.179,43.913 172.328 M41.046 174.625 C 40.823 175.205,41.769 177.600,42.221 177.600 C 42.331 177.600,42.147 177.071,41.813 176.425 C 41.479 175.779,41.314 174.969,41.446 174.625 C 41.578 174.281,41.596 174.000,41.486 174.000 C 41.376 174.000,41.178 174.281,41.046 174.625 M91.400 177.600 C 91.400 178.878,91.532 179.716,91.694 179.462 C 91.856 179.208,91.988 178.370,91.988 177.600 C 91.988 176.830,91.856 175.992,91.694 175.738 C 91.532 175.484,91.400 176.322,91.400 177.600 M168.456 175.966 C 168.975 176.387,169.477 176.655,169.571 176.561 C 169.776 176.357,168.344 175.231,167.856 175.213 C 167.666 175.206,167.936 175.545,168.456 175.966 M169.777 179.292 C 169.755 181.260,169.778 181.314,170.136 180.096 C 170.366 179.312,170.375 178.470,170.159 177.988 C 169.889 177.383,169.794 177.704,169.777 179.292 M151.615 181.385 L 147.847 185.169 144.823 185.304 L 141.800 185.439 144.808 185.520 L 147.815 185.600 151.800 181.600 C 153.992 179.400,155.695 177.600,155.585 177.600 C 155.474 177.600,153.688 179.303,151.615 181.385 M42.650 181.650 C 42.317 183.317,42.640 183.640,43.000 182.000 C 43.152 181.309,43.193 180.659,43.091 180.558 C 42.989 180.456,42.791 180.947,42.650 181.650 M70.381 180.700 C 75.144 180.801,76.307 180.944,76.981 181.511 C 77.797 182.197,77.797 182.197,77.038 181.300 C 76.305 180.434,76.054 180.403,70.438 180.488 L 64.600 180.576 70.381 180.700 M64.229 182.229 C 64.081 182.815,64.038 183.372,64.132 183.466 C 64.227 183.560,64.424 183.158,64.571 182.571 C 64.719 181.985,64.762 181.428,64.668 181.334 C 64.573 181.240,64.376 181.642,64.229 182.229 M111.900 183.493 C 112.835 183.577,114.365 183.577,115.300 183.493 C 116.235 183.409,115.470 183.340,113.600 183.340 C 111.730 183.340,110.965 183.409,111.900 183.493 M344.200 183.595 C 343.320 183.750,344.760 183.790,347.400 183.683 C 350.040 183.576,352.275 183.424,352.367 183.345 C 352.657 183.093,345.870 183.301,344.200 183.595 M89.829 184.629 C 89.681 185.215,89.638 185.772,89.732 185.866 C 89.827 185.960,90.024 185.558,90.171 184.971 C 90.319 184.385,90.362 183.828,90.268 183.734 C 90.173 183.640,89.976 184.042,89.829 184.629 M108.100 183.876 C 108.485 183.976,109.115 183.976,109.500 183.876 C 109.885 183.775,109.570 183.693,108.800 183.693 C 108.030 183.693,107.715 183.775,108.100 183.876 M117.900 183.882 C 118.395 183.978,119.205 183.978,119.700 183.882 C 120.195 183.787,119.790 183.709,118.800 183.709 C 117.810 183.709,117.405 183.787,117.900 183.882 M353.505 183.883 C 354.002 183.979,354.722 183.975,355.105 183.875 C 355.487 183.775,355.080 183.696,354.200 183.701 C 353.320 183.705,353.007 183.787,353.505 183.883 M63.429 185.029 C 63.281 185.615,63.238 186.172,63.332 186.266 C 63.427 186.360,63.624 185.958,63.771 185.371 C 63.919 184.785,63.962 184.228,63.868 184.134 C 63.773 184.040,63.576 184.442,63.429 185.029 M103.800 184.400 C 102.781 184.838,103.832 184.838,105.200 184.400 C 106.004 184.143,106.043 184.077,105.400 184.068 C 104.960 184.062,104.240 184.211,103.800 184.400 M122.033 184.147 C 122.125 184.228,122.920 184.404,123.800 184.538 C 124.915 184.707,125.158 184.671,124.600 184.419 C 123.832 184.071,121.690 183.844,122.033 184.147 M201.233 184.144 C 201.325 184.224,203.290 184.383,205.600 184.499 C 208.342 184.635,209.175 184.596,208.000 184.384 C 206.198 184.059,200.919 183.872,201.233 184.144 M243.600 184.409 C 242.794 184.583,243.644 184.623,245.600 184.501 C 247.470 184.385,249.075 184.225,249.167 184.145 C 249.464 183.887,245.042 184.096,243.600 184.409 M265.517 184.328 C 265.141 184.478,266.220 184.608,267.914 184.617 C 269.724 184.628,270.584 184.520,269.998 184.357 C 268.704 183.997,266.386 183.982,265.517 184.328 M339.200 184.418 C 338.762 184.715,338.924 184.752,339.800 184.556 C 341.271 184.227,341.590 183.998,340.567 184.006 C 340.145 184.009,339.530 184.195,339.200 184.418 M358.400 184.400 C 359.768 184.838,360.819 184.838,359.800 184.400 C 359.360 184.211,358.640 184.062,358.200 184.068 C 357.557 184.077,357.596 184.143,358.400 184.400 M198.900 184.676 C 199.285 184.776,199.915 184.776,200.300 184.676 C 200.685 184.575,200.370 184.493,199.600 184.493 C 198.830 184.493,198.515 184.575,198.900 184.676 M194.800 185.218 C 194.362 185.515,194.524 185.552,195.400 185.356 C 196.871 185.027,197.190 184.798,196.167 184.806 C 195.745 184.809,195.130 184.995,194.800 185.218 M211.600 185.200 C 212.968 185.638,214.019 185.638,213.000 185.200 C 212.560 185.011,211.840 184.862,211.400 184.868 C 210.757 184.877,210.796 184.943,211.600 185.200 M239.200 185.218 C 238.762 185.515,238.924 185.552,239.800 185.356 C 241.271 185.027,241.590 184.798,240.567 184.806 C 240.145 184.809,239.530 184.995,239.200 185.218 M169.900 185.489 C 170.615 185.578,171.785 185.578,172.500 185.489 C 173.215 185.401,172.630 185.328,171.200 185.328 C 169.770 185.328,169.185 185.401,169.900 185.489 M138.562 186.500 C 137.806 187.392,137.807 187.394,138.600 186.752 C 139.040 186.396,139.670 186.005,140.000 185.884 C 140.509 185.697,140.504 185.658,139.962 185.632 C 139.611 185.614,138.981 186.005,138.562 186.500 M175.556 186.254 C 176.353 186.812,176.459 187.149,176.273 188.534 C 176.130 189.597,176.181 189.958,176.421 189.579 C 177.291 188.204,176.348 185.600,174.980 185.600 C 174.783 185.600,175.042 185.895,175.556 186.254 M253.993 186.400 C 254.341 186.730,254.934 187.445,255.312 187.989 C 255.691 188.533,255.996 188.803,255.991 188.589 C 255.980 188.101,254.801 186.690,253.981 186.183 C 253.448 185.853,253.450 185.883,253.993 186.400 M273.239 185.700 C 273.335 185.755,274.211 186.520,275.187 187.400 C 276.163 188.280,276.701 188.646,276.381 188.213 C 275.583 187.131,273.878 185.628,273.433 185.613 C 273.232 185.606,273.144 185.645,273.239 185.700 M216.433 186.549 C 216.845 186.917,219.200 188.000,219.200 187.821 C 219.200 187.590,216.982 186.400,216.553 186.400 C 216.396 186.400,216.342 186.467,216.433 186.549 M233.590 187.300 C 232.859 187.795,232.192 188.470,232.108 188.800 C 232.004 189.205,232.098 189.172,232.397 188.699 C 232.641 188.314,233.507 187.647,234.320 187.217 C 235.134 186.787,235.602 186.427,235.359 186.418 C 235.117 186.408,234.321 186.805,233.590 187.300 M288.300 187.029 C 286.749 187.870,286.925 188.161,288.500 187.359 C 290.008 186.593,290.275 186.394,289.767 186.416 C 289.565 186.425,288.905 186.701,288.300 187.029 M62.629 187.829 C 62.481 188.415,62.438 188.972,62.532 189.066 C 62.627 189.160,62.824 188.758,62.971 188.171 C 63.119 187.585,63.162 187.028,63.068 186.934 C 62.973 186.840,62.776 187.242,62.629 187.829 M94.670 189.262 L 92.600 191.325 94.800 189.390 C 96.010 188.325,97.075 187.397,97.167 187.327 C 97.258 187.257,97.200 187.200,97.037 187.200 C 96.874 187.200,95.809 188.128,94.670 189.262 M132.400 187.325 C 132.400 187.424,133.061 188.009,133.868 188.625 C 134.676 189.241,135.211 189.541,135.056 189.291 C 134.740 188.779,132.400 187.047,132.400 187.325 M320.464 189.030 C 321.475 190.147,322.430 191.466,322.587 191.961 C 322.745 192.455,322.960 192.773,323.066 192.667 C 323.448 192.286,322.032 190.169,320.346 188.600 L 318.627 187.000 320.464 189.030 M330.351 188.831 L 328.600 190.462 330.500 188.946 C 331.545 188.113,332.400 187.379,332.400 187.315 C 332.400 187.007,331.963 187.330,330.351 188.831 M367.800 187.452 C 368.020 187.645,368.920 188.432,369.799 189.201 L 371.398 190.600 370.199 189.266 C 369.540 188.532,368.640 187.745,368.200 187.517 C 367.760 187.289,367.580 187.260,367.800 187.452 M219.744 188.309 C 220.060 188.821,222.400 190.553,222.400 190.275 C 222.400 190.176,221.739 189.591,220.932 188.975 C 220.124 188.359,219.589 188.059,219.744 188.309 M282.400 191.400 C 281.428 192.390,280.723 193.200,280.833 193.200 C 280.943 193.200,281.828 192.390,282.800 191.400 C 283.772 190.410,284.477 189.600,284.367 189.600 C 284.257 189.600,283.372 190.410,282.400 191.400 M114.105 190.287 C 114.714 190.379,115.614 190.377,116.105 190.282 C 116.597 190.187,116.100 190.111,115.000 190.114 C 113.900 190.117,113.497 190.195,114.105 190.287 M140.318 192.128 C 141.459 193.408,142.557 195.028,142.760 195.728 C 142.962 196.427,143.144 196.676,143.164 196.280 C 143.222 195.119,142.198 193.526,140.155 191.600 L 138.245 189.800 140.318 192.128 M349.500 190.282 C 349.995 190.378,350.805 190.378,351.300 190.282 C 351.795 190.187,351.390 190.109,350.400 190.109 C 349.410 190.109,349.005 190.187,349.500 190.282 M72.046 190.763 C 71.705 190.979,72.193 191.035,73.316 190.908 C 74.891 190.731,75.279 190.843,76.170 191.733 C 76.736 192.300,77.200 192.605,77.200 192.411 C 77.200 191.074,73.449 189.875,72.046 190.763 M110.719 191.619 C 109.351 192.988,109.289 195.469,110.592 196.755 C 111.197 197.352,111.199 197.310,110.625 196.200 C 109.644 194.301,109.833 192.877,111.242 191.560 C 111.926 190.922,112.362 190.400,112.212 190.400 C 112.061 190.400,111.390 190.949,110.719 191.619 M175.149 191.061 C 174.847 191.425,174.060 191.958,173.400 192.246 C 172.676 192.561,172.475 192.775,172.894 192.784 C 173.516 192.798,176.553 190.440,175.949 190.412 C 175.811 190.405,175.451 190.698,175.149 191.061 M232.000 190.525 C 232.000 190.594,232.585 191.179,233.300 191.825 L 234.600 193.000 233.425 191.700 C 232.330 190.488,232.000 190.216,232.000 190.525 M352.838 192.200 C 352.824 193.300,352.965 194.440,353.151 194.734 C 353.349 195.046,353.416 194.382,353.313 193.134 C 353.071 190.203,352.868 189.805,352.838 192.200 M180.575 192.500 L 179.400 193.800 180.700 192.625 C 181.912 191.530,182.184 191.200,181.875 191.200 C 181.806 191.200,181.221 191.785,180.575 192.500 M68.575 193.300 L 67.400 194.600 68.700 193.425 C 69.415 192.779,70.000 192.194,70.000 192.125 C 70.000 191.816,69.670 192.088,68.575 193.300 M204.724 192.600 C 204.926 193.040,205.192 193.670,205.314 194.000 C 205.507 194.518,205.541 194.515,205.568 193.976 C 205.586 193.634,205.320 193.004,204.978 192.576 C 204.366 191.812,204.362 191.813,204.724 192.600 M303.328 194.400 C 303.328 195.830,303.401 196.415,303.489 195.700 C 303.578 194.985,303.578 193.815,303.489 193.100 C 303.401 192.385,303.328 192.970,303.328 194.400 M345.301 194.200 C 345.305 195.080,345.387 195.393,345.483 194.895 C 345.579 194.398,345.575 193.678,345.475 193.295 C 345.375 192.913,345.296 193.320,345.301 194.200 M234.563 195.091 C 234.529 196.809,234.564 196.886,234.908 195.864 C 235.129 195.207,235.145 194.403,234.945 193.956 C 234.688 193.380,234.590 193.670,234.563 195.091 M323.400 196.400 C 323.400 198.144,323.522 199.262,323.672 198.885 C 323.821 198.508,323.944 197.390,323.944 196.400 C 323.944 195.410,323.821 194.292,323.672 193.915 C 323.522 193.538,323.400 194.656,323.400 196.400 M279.433 194.834 C 278.829 195.512,278.439 196.172,278.567 196.300 C 278.695 196.428,278.846 196.458,278.901 196.367 C 278.957 196.275,279.412 195.615,279.913 194.900 C 281.060 193.262,280.858 193.234,279.433 194.834 M136.446 194.467 C 136.421 194.834,136.296 195.464,136.170 195.867 C 135.952 196.562,135.963 196.563,136.397 195.887 C 136.648 195.496,136.773 194.866,136.673 194.487 C 136.511 193.868,136.488 193.866,136.446 194.467 M177.560 195.500 C 176.219 196.934,174.583 199.035,175.458 198.200 C 176.411 197.290,179.289 194.000,179.132 194.000 C 179.039 194.000,178.331 194.675,177.560 195.500 M90.649 195.815 C 90.512 196.173,90.429 197.576,90.465 198.933 L 90.529 201.400 90.784 198.400 C 91.057 195.178,91.038 194.804,90.649 195.815 M353.600 195.858 C 353.600 196.074,354.185 196.779,354.900 197.425 L 356.200 198.600 355.000 197.202 C 354.340 196.433,353.755 195.728,353.700 195.635 C 353.645 195.543,353.600 195.643,353.600 195.858 M61.907 196.290 C 62.626 196.379,63.706 196.377,64.307 196.286 C 64.908 196.195,64.320 196.122,63.000 196.124 C 61.680 196.126,61.188 196.201,61.907 196.290 M258.400 196.443 C 258.950 196.659,259.731 197.232,260.135 197.718 C 260.539 198.203,260.736 198.330,260.574 198.000 C 259.972 196.778,259.053 196.001,258.238 196.025 C 257.486 196.048,257.503 196.091,258.400 196.443 M325.869 197.156 C 325.721 197.895,325.620 198.883,325.644 199.350 C 325.668 199.817,325.847 199.390,326.042 198.400 C 326.237 197.410,326.338 196.423,326.267 196.206 C 326.196 195.990,326.017 196.417,325.869 197.156 M345.600 196.264 C 345.600 196.482,346.095 197.097,346.700 197.630 L 347.800 198.600 346.800 197.400 C 346.250 196.740,345.755 196.125,345.700 196.033 C 345.645 195.942,345.600 196.045,345.600 196.264 M205.040 198.040 C 204.893 198.957,204.852 199.785,204.947 199.880 C 205.042 199.976,205.246 199.310,205.400 198.400 C 205.554 197.490,205.596 196.662,205.493 196.560 C 205.390 196.457,205.187 197.123,205.040 198.040 M225.858 197.600 C 226.175 199.325,226.402 199.651,226.394 198.367 C 226.391 197.835,226.211 197.130,225.994 196.800 C 225.718 196.378,225.677 196.615,225.858 197.600 M134.830 197.768 C 134.330 198.300,133.393 198.954,132.748 199.222 C 132.102 199.489,131.653 199.787,131.750 199.883 C 132.051 200.184,134.153 198.927,135.170 197.838 C 135.703 197.267,136.049 196.800,135.939 196.800 C 135.829 196.800,135.330 197.236,134.830 197.768 M111.869 198.032 C 112.366 198.633,114.800 200.164,114.800 199.876 C 114.800 199.783,114.035 199.202,113.100 198.585 C 112.165 197.968,111.611 197.720,111.869 198.032 M142.629 198.629 C 142.481 199.215,142.438 199.772,142.532 199.866 C 142.627 199.960,142.824 199.558,142.971 198.971 C 143.119 198.385,143.162 197.828,143.068 197.734 C 142.973 197.640,142.776 198.042,142.629 198.629 M174.214 199.835 C 173.841 200.404,173.605 200.938,173.689 201.022 C 173.773 201.107,174.158 200.641,174.544 199.988 C 175.406 198.528,175.148 198.409,174.214 199.835 M261.397 199.995 C 262.182 201.513,264.355 204.000,264.895 204.000 C 265.122 204.000,264.833 203.627,264.254 203.171 C 263.674 202.715,262.732 201.545,262.162 200.571 C 260.992 198.574,260.453 198.168,261.397 199.995 M125.300 200.276 C 125.685 200.376,126.315 200.376,126.700 200.276 C 127.085 200.175,126.770 200.093,126.000 200.093 C 125.230 200.093,124.915 200.175,125.300 200.276 M128.900 200.276 C 129.285 200.376,129.915 200.376,130.300 200.276 C 130.685 200.175,130.370 200.093,129.600 200.093 C 128.830 200.093,128.515 200.175,128.900 200.276 M350.800 200.196 C 350.800 200.470,353.249 201.684,353.432 201.501 C 353.519 201.414,352.962 201.044,352.195 200.678 C 351.428 200.312,350.800 200.095,350.800 200.196 M322.278 201.805 C 321.912 202.572,321.695 203.200,321.796 203.200 C 322.070 203.200,323.284 200.751,323.101 200.568 C 323.014 200.481,322.644 201.038,322.278 201.805 M204.229 201.829 C 204.081 202.415,204.038 202.972,204.132 203.066 C 204.227 203.160,204.424 202.758,204.571 202.171 C 204.719 201.585,204.762 201.028,204.668 200.934 C 204.573 200.840,204.376 201.242,204.229 201.829 M300.094 202.812 C 299.375 203.465,298.937 204.000,299.119 204.000 C 299.301 204.000,299.968 203.460,300.600 202.800 C 302.070 201.265,301.786 201.272,300.094 202.812 M275.400 204.800 C 275.248 205.491,275.207 206.141,275.309 206.242 C 275.411 206.344,275.609 205.853,275.750 205.150 C 276.083 203.483,275.760 203.160,275.400 204.800 M295.201 204.500 C 295.200 204.895,297.262 204.876,297.893 204.475 C 298.176 204.295,297.707 204.170,296.794 204.181 C 295.919 204.191,295.202 204.335,295.201 204.500 M92.975 205.732 C 93.591 206.539,94.176 207.200,94.275 207.200 C 94.553 207.200,92.821 204.860,92.309 204.544 C 92.059 204.389,92.359 204.924,92.975 205.732 M225.822 205.822 C 225.672 206.625,225.628 207.362,225.726 207.460 C 225.824 207.557,226.027 206.981,226.178 206.178 C 226.328 205.375,226.372 204.638,226.274 204.540 C 226.176 204.443,225.973 205.019,225.822 205.822 M125.200 204.900 C 125.310 205.024,126.388 205.789,127.596 206.600 C 128.804 207.411,129.483 207.734,129.105 207.317 C 128.728 206.899,127.650 206.134,126.709 205.616 C 125.769 205.099,125.090 204.776,125.200 204.900 M329.200 206.600 C 329.946 207.370,330.647 208.000,330.757 208.000 C 330.867 208.000,330.346 207.370,329.600 206.600 C 328.854 205.830,328.153 205.200,328.043 205.200 C 327.933 205.200,328.454 205.830,329.200 206.600 M95.985 208.371 C 96.747 209.047,97.542 209.600,97.752 209.600 C 97.962 209.600,98.058 209.548,97.967 209.484 C 97.875 209.420,97.080 208.867,96.200 208.255 L 94.600 207.142 95.985 208.371 M365.600 208.600 C 366.346 209.370,367.047 210.000,367.157 210.000 C 367.267 210.000,366.746 209.370,366.000 208.600 C 365.254 207.830,364.553 207.200,364.443 207.200 C 364.333 207.200,364.854 207.830,365.600 208.600 M274.600 210.000 C 274.444 211.347,274.401 212.534,274.505 212.638 C 274.609 212.742,274.819 211.722,274.971 210.371 C 275.124 209.021,275.167 207.834,275.067 207.733 C 274.966 207.633,274.756 208.653,274.600 210.000 M66.025 208.691 C 66.951 210.174,69.437 210.870,70.779 210.021 C 71.160 209.781,70.809 209.729,69.760 209.869 C 68.415 210.050,67.949 209.905,66.827 208.961 C 65.754 208.059,65.597 208.006,66.025 208.691 M309.400 209.200 C 308.311 209.477,308.293 209.507,309.200 209.525 C 309.750 209.535,310.560 209.389,311.000 209.200 C 311.986 208.776,311.066 208.776,309.400 209.200 M56.229 210.629 C 56.081 211.215,56.038 211.772,56.132 211.866 C 56.227 211.960,56.424 211.558,56.571 210.971 C 56.719 210.385,56.762 209.828,56.668 209.734 C 56.573 209.640,56.376 210.042,56.229 210.629 M299.500 209.896 C 300.875 209.974,303.125 209.974,304.500 209.896 C 305.875 209.818,304.750 209.754,302.000 209.754 C 299.250 209.754,298.125 209.818,299.500 209.896 M193.029 211.029 C 192.881 211.615,192.838 212.172,192.932 212.266 C 193.027 212.360,193.224 211.958,193.371 211.371 C 193.519 210.785,193.562 210.228,193.468 210.134 C 193.373 210.040,193.176 210.442,193.029 211.029 M77.105 210.683 C 77.602 210.779,78.322 210.775,78.705 210.675 C 79.087 210.575,78.680 210.496,77.800 210.501 C 76.920 210.505,76.607 210.587,77.105 210.683 M170.440 213.233 C 170.462 214.645,170.617 216.250,170.784 216.800 C 170.951 217.350,170.999 216.270,170.890 214.400 C 170.654 210.334,170.384 209.636,170.440 213.233 M71.967 213.464 C 70.662 214.709,69.652 215.785,69.722 215.856 C 69.793 215.926,70.958 214.908,72.311 213.592 C 73.664 212.276,74.674 211.200,74.556 211.200 C 74.437 211.200,73.273 212.219,71.967 213.464 M80.971 211.829 C 81.317 212.174,81.600 212.654,81.600 212.895 C 81.600 213.136,81.705 213.229,81.832 213.101 C 82.156 212.777,81.264 211.200,80.757 211.200 C 80.529 211.200,80.626 211.483,80.971 211.829 M89.200 211.613 C 88.554 211.829,88.980 211.866,90.400 211.719 C 91.610 211.594,92.675 211.426,92.767 211.346 C 93.087 211.065,90.191 211.283,89.200 211.613 M324.717 211.528 C 324.341 211.678,325.420 211.808,327.114 211.817 C 328.924 211.828,329.784 211.720,329.198 211.557 C 327.904 211.197,325.586 211.182,324.717 211.528 M86.344 212.824 L 85.400 213.647 86.600 212.945 C 88.179 212.020,88.203 212.000,87.711 212.000 C 87.479 212.000,86.864 212.371,86.344 212.824 M96.800 213.036 C 97.790 213.601,98.946 214.364,99.369 214.731 C 99.806 215.112,100.001 215.167,99.821 214.861 C 99.444 214.218,96.024 211.998,95.422 212.005 C 95.190 212.007,95.810 212.472,96.800 213.036 M55.429 213.429 C 55.281 214.015,55.238 214.572,55.332 214.666 C 55.427 214.760,55.624 214.358,55.771 213.771 C 55.919 213.185,55.962 212.628,55.868 212.534 C 55.773 212.440,55.576 212.842,55.429 213.429 M133.000 215.400 C 133.000 217.034,133.122 218.062,133.272 217.685 C 133.421 217.308,133.544 216.280,133.544 215.400 C 133.544 214.520,133.421 213.492,133.272 213.115 C 133.122 212.738,133.000 213.766,133.000 215.400 M223.078 214.205 C 222.712 214.972,222.495 215.600,222.596 215.600 C 222.870 215.600,224.084 213.151,223.901 212.968 C 223.814 212.881,223.444 213.438,223.078 214.205 M332.600 213.052 C 332.820 213.245,333.720 214.032,334.599 214.801 L 336.198 216.200 334.999 214.866 C 334.340 214.132,333.440 213.345,333.000 213.117 C 332.560 212.889,332.380 212.860,332.600 213.052 M192.229 214.229 C 192.081 214.815,192.038 215.372,192.132 215.466 C 192.227 215.560,192.424 215.158,192.571 214.571 C 192.719 213.985,192.762 213.428,192.668 213.334 C 192.573 213.240,192.376 213.642,192.229 214.229 M296.287 215.609 C 296.995 216.351,297.642 216.878,297.725 216.779 C 297.808 216.681,297.229 216.073,296.438 215.429 L 295.000 214.258 296.287 215.609 M33.029 215.829 C 32.881 216.415,32.838 216.972,32.932 217.066 C 33.027 217.160,33.224 216.758,33.371 216.171 C 33.519 215.585,33.562 215.028,33.468 214.934 C 33.373 214.840,33.176 215.242,33.029 215.829 M109.645 216.181 C 110.000 216.631,110.490 217.360,110.733 217.800 C 110.977 218.240,111.181 218.378,111.188 218.106 C 111.195 217.835,110.705 217.106,110.100 216.487 C 109.495 215.868,109.290 215.730,109.645 216.181 M83.443 216.633 C 83.106 217.509,83.149 220.501,83.506 221.062 C 83.668 221.316,83.800 220.281,83.800 218.762 C 83.800 215.741,83.795 215.714,83.443 216.633 M66.696 219.013 C 65.209 220.436,64.135 221.600,64.308 221.600 C 64.481 221.600,65.783 220.430,67.200 219.000 C 70.516 215.654,70.199 215.662,66.696 219.013 M191.398 218.900 C 190.811 223.646,193.677 225.533,196.611 222.333 L 197.800 221.036 196.286 222.318 C 193.391 224.770,191.774 223.789,191.856 219.630 C 191.922 216.272,191.756 216.007,191.398 218.900 M368.446 217.267 C 368.421 217.634,368.296 218.264,368.170 218.667 C 367.952 219.362,367.963 219.363,368.397 218.687 C 368.648 218.296,368.773 217.666,368.673 217.287 C 368.511 216.668,368.488 216.666,368.446 217.267 M302.500 217.891 C 303.325 217.978,304.675 217.978,305.500 217.891 C 306.325 217.805,305.650 217.734,304.000 217.734 C 302.350 217.734,301.675 217.805,302.500 217.891 M159.200 218.567 C 159.200 218.988,160.405 220.128,160.621 219.912 C 160.722 219.811,160.444 219.402,160.002 219.002 C 159.561 218.603,159.200 218.407,159.200 218.567 M318.468 218.800 C 318.488 219.839,319.118 221.546,319.132 220.600 C 319.138 220.160,318.989 219.440,318.800 219.000 C 318.589 218.510,318.461 218.432,318.468 218.800 M337.082 220.200 C 337.209 221.300,337.377 222.275,337.456 222.367 C 337.755 222.714,337.528 219.764,337.197 219.000 C 336.974 218.485,336.933 218.913,337.082 220.200 M101.674 221.086 C 101.599 223.203,102.192 224.057,103.674 223.968 C 103.963 223.951,103.714 223.759,103.120 223.542 C 102.168 223.193,102.023 222.901,101.894 221.073 L 101.748 219.000 101.674 221.086 M131.878 220.605 C 131.512 221.372,131.295 222.000,131.396 222.000 C 131.670 222.000,132.884 219.551,132.701 219.368 C 132.614 219.281,132.244 219.838,131.878 220.605 M167.161 219.953 C 168.001 220.105,168.642 220.506,168.833 221.000 C 169.048 221.552,169.152 221.608,169.172 221.180 C 169.216 220.209,168.352 219.595,167.020 219.653 L 165.800 219.705 167.161 219.953 M366.892 221.292 C 366.399 222.193,366.055 222.988,366.127 223.060 C 366.199 223.132,366.668 222.461,367.169 221.569 C 367.671 220.677,368.015 219.882,367.935 219.801 C 367.855 219.721,367.385 220.392,366.892 221.292 M162.305 220.283 C 162.802 220.379,163.522 220.375,163.905 220.275 C 164.287 220.175,163.880 220.096,163.000 220.101 C 162.120 220.105,161.807 220.187,162.305 220.283 M110.089 221.917 L 109.179 223.400 110.189 222.278 C 110.745 221.660,111.200 220.985,111.200 220.778 C 111.200 220.190,111.065 220.328,110.089 221.917 M172.016 220.520 C 171.986 221.120,173.146 223.057,173.874 223.622 C 174.560 224.155,174.564 224.142,173.950 223.393 C 173.593 222.957,173.015 222.060,172.666 221.400 C 172.317 220.740,172.025 220.344,172.016 220.520 M217.578 221.900 L 216.200 223.400 217.700 222.022 C 219.096 220.738,219.384 220.400,219.078 220.400 C 219.012 220.400,218.337 221.075,217.578 221.900 M248.453 222.126 C 248.388 223.999,248.833 224.883,250.284 225.766 L 251.400 226.444 250.221 225.444 C 249.336 224.693,248.975 223.964,248.774 222.522 C 248.518 220.678,248.505 220.662,248.453 222.126 M276.800 221.177 C 276.800 221.942,281.629 226.595,283.202 227.345 C 283.971 227.711,284.261 227.784,283.847 227.506 C 281.437 225.888,279.030 223.758,277.990 222.323 C 277.336 221.419,276.800 220.904,276.800 221.177 M53.601 222.100 C 53.600 222.472,61.941 222.446,62.888 222.072 C 63.266 221.922,61.332 221.800,58.589 221.800 C 55.846 221.800,53.602 221.935,53.601 222.100 M79.429 223.029 C 79.281 223.615,79.238 224.172,79.332 224.266 C 79.427 224.360,79.624 223.958,79.771 223.371 C 79.919 222.785,79.962 222.228,79.868 222.134 C 79.773 222.040,79.576 222.442,79.429 223.029 M313.408 223.900 C 312.549 224.945,312.260 225.440,312.766 225.000 C 313.661 224.222,315.398 222.000,315.112 222.000 C 315.034 222.000,314.267 222.855,313.408 223.900 M29.775 223.700 L 28.600 225.000 29.900 223.825 C 31.112 222.730,31.384 222.400,31.075 222.400 C 31.006 222.400,30.421 222.985,29.775 223.700 M129.381 224.100 L 127.800 225.800 129.500 224.219 C 131.081 222.748,131.384 222.400,131.081 222.400 C 131.016 222.400,130.251 223.165,129.381 224.100 M343.600 223.248 C 342.830 223.661,342.495 223.999,342.856 223.999 C 343.216 224.000,343.936 223.646,344.456 223.213 C 345.600 222.260,345.431 222.267,343.600 223.248 M225.029 224.362 L 223.858 225.800 225.209 224.513 C 225.951 223.805,226.478 223.158,226.379 223.075 C 226.281 222.992,225.673 223.571,225.029 224.362 M337.549 223.300 C 337.851 223.685,338.481 223.979,338.949 223.954 C 339.757 223.910,339.760 223.897,339.000 223.711 C 338.560 223.602,337.930 223.308,337.600 223.057 C 337.078 222.660,337.072 222.691,337.549 223.300 M321.967 225.345 C 322.500 226.001,324.000 226.993,324.000 226.689 C 324.000 226.613,323.415 226.122,322.700 225.599 C 321.896 225.010,321.616 224.913,321.967 225.345 M362.011 226.220 C 360.184 227.509,360.813 227.492,362.714 226.200 C 363.523 225.650,364.009 225.209,363.793 225.220 C 363.577 225.230,362.775 225.680,362.011 226.220 M138.800 227.400 C 139.546 228.170,140.247 228.800,140.357 228.800 C 140.467 228.800,139.946 228.170,139.200 227.400 C 138.454 226.630,137.753 226.000,137.643 226.000 C 137.533 226.000,138.054 226.630,138.800 227.400 M161.600 228.000 C 160.830 228.422,160.344 228.774,160.520 228.783 C 160.944 228.805,163.200 227.632,163.200 227.390 C 163.200 227.128,163.177 227.137,161.600 228.000 M26.744 229.576 C 27.717 230.425,72.967 230.918,74.262 230.094 C 74.516 229.932,64.186 229.849,51.306 229.909 C 30.525 230.007,27.771 229.948,26.844 229.386 L 25.800 228.753 26.744 229.576 M221.600 229.127 C 221.600 230.285,248.930 231.195,250.663 230.094 C 250.917 229.932,244.911 229.852,237.315 229.915 C 225.343 230.015,223.379 229.947,222.553 229.406 C 222.029 229.063,221.600 228.937,221.600 229.127 M184.000 229.982 C 184.330 230.205,184.945 230.391,185.367 230.394 C 186.390 230.402,186.071 230.173,184.600 229.844 C 183.724 229.648,183.562 229.685,184.000 229.982 M202.200 230.000 C 201.696 230.217,201.622 230.344,202.000 230.344 C 202.330 230.344,202.960 230.189,203.400 230.000 C 203.904 229.783,203.978 229.656,203.600 229.656 C 203.270 229.656,202.640 229.811,202.200 230.000 M290.200 229.981 C 290.968 230.329,293.110 230.556,292.767 230.253 C 292.675 230.172,291.880 229.996,291.000 229.862 C 289.885 229.693,289.642 229.729,290.200 229.981 M301.400 230.000 C 300.311 230.277,300.293 230.307,301.200 230.325 C 301.750 230.335,302.560 230.189,303.000 230.000 C 303.986 229.576,303.066 229.576,301.400 230.000 M334.000 229.980 C 334.999 230.320,337.482 230.532,337.167 230.251 C 337.075 230.169,336.100 229.999,335.000 229.872 C 333.651 229.716,333.326 229.751,334.000 229.980 M351.000 230.000 C 349.922 230.274,349.902 230.306,350.800 230.313 C 351.350 230.317,352.250 230.176,352.800 230.000 C 354.144 229.569,352.692 229.569,351.000 230.000 M100.100 230.276 C 100.485 230.376,101.115 230.376,101.500 230.276 C 101.885 230.175,101.570 230.093,100.800 230.093 C 100.030 230.093,99.715 230.175,100.100 230.276 M106.900 230.691 C 107.725 230.778,109.075 230.778,109.900 230.691 C 110.725 230.605,110.050 230.534,108.400 230.534 C 106.750 230.534,106.075 230.605,106.900 230.691 M149.800 230.800 L 146.200 231.049 149.600 231.085 C 151.470 231.104,153.450 230.976,154.000 230.800 C 155.152 230.431,155.137 230.431,149.800 230.800 M188.220 230.853 C 189.778 231.186,197.947 231.192,199.120 230.860 C 199.627 230.717,197.115 230.600,193.540 230.600 C 189.965 230.600,187.570 230.714,188.220 230.853 M342.311 230.693 C 343.251 230.778,344.691 230.777,345.511 230.691 C 346.330 230.605,345.560 230.536,343.800 230.537 C 342.040 230.539,341.370 230.609,342.311 230.693 "
              stroke="none" fill="#729cd4" fill-rule="evenodd"></path>
    </g>
</svg>
